<svg width="78" height="85" viewBox="0 0 78 85" fill="none" xmlns="http://www.w3.org/2000/svg">
<path d="M62.8399 45.917C62.7472 45.9171 62.6565 45.8897 62.5794 45.8382C62.5023 45.7867 62.4422 45.7135 62.4067 45.6279C62.3712 45.5422 62.3619 45.4479 62.3801 45.357C62.3982 45.2661 62.4429 45.1826 62.5085 45.1171L65.3204 42.305C65.3639 42.2615 65.4156 42.227 65.4725 42.2034C65.5293 42.1799 65.5902 42.1678 65.6518 42.1678C65.7133 42.1678 65.7742 42.1799 65.8311 42.2034C65.888 42.227 65.9396 42.2615 65.9831 42.305C66.0266 42.3485 66.0612 42.4002 66.0847 42.457C66.1083 42.5139 66.1204 42.5748 66.1204 42.6364C66.1204 42.6979 66.1083 42.7588 66.0847 42.8157C66.0612 42.8725 66.0266 42.9242 65.9831 42.9677L63.1712 45.7796C63.1278 45.8232 63.0762 45.8578 63.0193 45.8814C62.9624 45.905 62.9015 45.9171 62.8399 45.917ZM51.5923 55.7587H25.3477C25.0886 55.7587 24.8789 55.5491 24.8789 55.2901V34.6693C24.8789 34.6078 24.891 34.5468 24.9145 34.4899C24.9381 34.433 24.9726 34.3814 25.0161 34.3378C25.0597 34.2943 25.1114 34.2598 25.1682 34.2363C25.2251 34.2127 25.2861 34.2006 25.3477 34.2007H51.5921C51.8512 34.2007 52.0609 34.4103 52.0609 34.6693V55.2901C52.0609 55.3516 52.0488 55.4126 52.0253 55.4695C52.0017 55.5263 51.9672 55.578 51.9237 55.6215C51.8802 55.6651 51.8285 55.6996 51.7716 55.7231C51.7148 55.7467 51.6538 55.7588 51.5923 55.7587ZM25.8163 54.8215H51.1235V35.1379H25.8163V54.8215Z" fill="#020724"/>
<path d="M51.592 35.1376H25.3474C25.2547 35.1376 25.1641 35.1101 25.087 35.0586C25.01 35.0072 24.9499 34.934 24.9144 34.8484C24.8791 34.7627 24.8699 34.6686 24.8879 34.5777C24.906 34.4868 24.9506 34.4033 25.016 34.3377L28.7653 30.5885C28.8088 30.545 28.8604 30.5104 28.9173 30.4869C28.9742 30.4633 29.0351 30.4512 29.0967 30.4512H47.8428C47.9673 30.4512 48.0862 30.5006 48.1741 30.5885L51.9234 34.3377C51.9888 34.4033 52.0333 34.4868 52.0514 34.5777C52.0695 34.6686 52.0603 34.7627 52.025 34.8484C51.9895 34.934 51.9294 35.0072 51.8523 35.0586C51.7753 35.1101 51.6847 35.1376 51.592 35.1376ZM26.4788 34.2004H50.4607L47.6487 31.3884H29.2906L26.4788 34.2004Z" fill="#020724"/>
<path d="M35.6579 35.1378C35.5781 35.1376 35.4996 35.1171 35.4299 35.0782C35.3602 35.0393 35.3015 34.9832 35.2596 34.9153C35.2176 34.8474 35.1936 34.7699 35.1899 34.6901C35.1863 34.6104 35.203 34.531 35.2386 34.4595L37.1133 30.7102C37.2304 30.4796 37.5105 30.3852 37.7421 30.5006C37.8532 30.5562 37.9377 30.6537 37.977 30.7716C38.0163 30.8895 38.0072 31.0182 37.9517 31.1294L36.0771 34.8786C36.0381 34.9564 35.9783 35.0218 35.9042 35.0676C35.8302 35.1134 35.7449 35.1377 35.6579 35.1378ZM41.2817 35.1378C41.1947 35.1377 41.1095 35.1134 41.0355 35.0677C40.9614 35.0219 40.9016 34.9566 40.8625 34.8788L38.9879 31.1296C38.9324 31.0184 38.9233 30.8897 38.9626 30.7718C39.002 30.6539 39.0864 30.5565 39.1975 30.5008C39.2526 30.4732 39.3125 30.4568 39.3739 30.4524C39.4354 30.448 39.497 30.4557 39.5554 30.4752C39.6138 30.4947 39.6678 30.5255 39.7143 30.5658C39.7608 30.6062 39.7989 30.6553 39.8264 30.7104L41.7009 34.4597C41.7564 34.5709 41.7655 34.6996 41.7262 34.8175C41.6869 34.9354 41.6024 35.0329 41.4913 35.0886C41.4262 35.121 41.3544 35.1379 41.2817 35.1378Z" fill="#020724"/>
<path d="M35.6581 38.8869C35.5965 38.8869 35.5356 38.8748 35.4787 38.8513C35.4218 38.8277 35.3701 38.7932 35.3266 38.7496C35.2831 38.7061 35.2486 38.6544 35.225 38.5975C35.2015 38.5406 35.1894 38.4797 35.1895 38.4181V34.6688C35.1895 34.4098 35.3991 34.2002 35.6581 34.2002C35.9171 34.2002 36.1267 34.4098 36.1267 34.6688V38.4181C36.1267 38.6772 35.9171 38.8869 35.6581 38.8869Z" fill="#020724"/>
<path d="M41.2819 38.8871H35.6581C35.3991 38.8871 35.1895 38.6774 35.1895 38.4183C35.1895 38.1592 35.3991 37.9497 35.6581 37.9497H41.2819C41.5409 37.9497 41.7505 38.1594 41.7505 38.4183C41.7505 38.6773 41.5409 38.8871 41.2819 38.8871Z" fill="#020724"/>
<path d="M41.2819 38.8869C41.2204 38.8869 41.1594 38.8748 41.1025 38.8513C41.0456 38.8277 40.994 38.7932 40.9504 38.7496C40.9069 38.7061 40.8724 38.6544 40.8489 38.5975C40.8253 38.5406 40.8132 38.4797 40.8133 38.4181V34.6688C40.8133 34.6073 40.8254 34.5463 40.8489 34.4895C40.8724 34.4326 40.9069 34.3809 40.9505 34.3374C40.994 34.2939 41.0457 34.2593 41.1025 34.2358C41.1594 34.2123 41.2204 34.2002 41.2819 34.2002C41.3435 34.2002 41.4044 34.2123 41.4613 34.2358C41.5182 34.2593 41.5698 34.2939 41.6134 34.3374C41.6569 34.3809 41.6914 34.4326 41.7149 34.4895C41.7385 34.5463 41.7506 34.6073 41.7505 34.6688V38.4181C41.7505 38.6772 41.5409 38.8869 41.2819 38.8869ZM35.6581 39.3555C35.5965 39.3555 35.5356 39.3434 35.4787 39.3199C35.4218 39.2964 35.3702 39.2618 35.3266 39.2183C35.2831 39.1748 35.2486 39.1231 35.2251 39.0662C35.2015 39.0094 35.1894 38.9484 35.1895 38.8869V38.4181C35.1895 38.1591 35.3991 37.9495 35.6581 37.9495C35.9171 37.9495 36.1267 38.1591 36.1267 38.4181V38.8869C36.1267 38.9484 36.1146 39.0094 36.0911 39.0662C36.0676 39.1231 36.0331 39.1748 35.9895 39.2183C35.946 39.2618 35.8943 39.2964 35.8375 39.3199C35.7806 39.3434 35.7196 39.3555 35.6581 39.3555ZM37.5327 39.3555C37.2736 39.3555 37.064 39.1459 37.064 38.8869V38.4181C37.064 38.3566 37.0761 38.2956 37.0996 38.2387C37.1232 38.1818 37.1577 38.1302 37.2012 38.0866C37.2448 38.0431 37.2964 38.0086 37.3533 37.9851C37.4102 37.9615 37.4712 37.9494 37.5327 37.9495C37.5943 37.9495 37.6552 37.9616 37.7121 37.9851C37.769 38.0086 37.8207 38.0432 37.8642 38.0867C37.9077 38.1302 37.9422 38.1819 37.9658 38.2387C37.9893 38.2956 38.0014 38.3566 38.0014 38.4181V38.8869C38.0014 38.9484 37.9893 39.0094 37.9658 39.0662C37.9422 39.1231 37.9077 39.1748 37.8642 39.2183C37.8207 39.2618 37.769 39.2964 37.7121 39.3199C37.6552 39.3434 37.5943 39.3555 37.5327 39.3555ZM39.4073 39.3555C39.3457 39.3555 39.2848 39.3434 39.2279 39.3199C39.171 39.2964 39.1193 39.2618 39.0758 39.2183C39.0323 39.1748 38.9978 39.1231 38.9742 39.0662C38.9507 39.0094 38.9386 38.9484 38.9386 38.8869V38.4181C38.9386 38.3566 38.9507 38.2956 38.9742 38.2387C38.9978 38.1819 39.0323 38.1302 39.0758 38.0867C39.1193 38.0432 39.171 38.0086 39.2279 37.9851C39.2848 37.9616 39.3457 37.9495 39.4073 37.9495C39.6664 37.9495 39.876 38.1591 39.876 38.4181V38.8869C39.876 38.9484 39.8639 39.0094 39.8404 39.0663C39.8168 39.1232 39.7823 39.1748 39.7388 39.2184C39.6952 39.2619 39.6436 39.2964 39.5867 39.3199C39.5298 39.3435 39.4688 39.3556 39.4073 39.3555Z" fill="#020724"/>
<path d="M41.2822 39.3557C41.2207 39.3558 41.1597 39.3437 41.1029 39.3201C41.046 39.2966 40.9943 39.2621 40.9508 39.2185C40.9073 39.175 40.8727 39.1233 40.8492 39.0665C40.8257 39.0096 40.8136 38.9486 40.8136 38.8871V38.4183C40.8136 38.3568 40.8257 38.2958 40.8492 38.239C40.8727 38.1821 40.9073 38.1304 40.9508 38.0869C40.9943 38.0434 41.046 38.0089 41.1029 37.9853C41.1597 37.9618 41.2207 37.9497 41.2822 37.9497C41.3438 37.9497 41.4047 37.9618 41.4616 37.9853C41.5185 38.0089 41.5701 38.0434 41.6137 38.0869C41.6572 38.1304 41.6917 38.1821 41.7153 38.239C41.7388 38.2958 41.7509 38.3568 41.7509 38.4183V38.8871C41.7509 38.9486 41.7388 39.0096 41.7153 39.0665C41.6917 39.1233 41.6572 39.175 41.6137 39.2185C41.5701 39.2621 41.5185 39.2966 41.4616 39.3201C41.4047 39.3437 41.3438 39.3558 41.2822 39.3557ZM49.718 53.8839H47.8433C47.7818 53.884 47.7208 53.8719 47.6639 53.8483C47.607 53.8248 47.5554 53.7902 47.5118 53.7467C47.4683 53.7032 47.4338 53.6515 47.4103 53.5946C47.3867 53.5377 47.3746 53.4767 47.3747 53.4152V51.5406C47.3747 51.2815 47.5843 51.0719 47.8433 51.0719H49.718C49.7795 51.0719 49.8405 51.084 49.8974 51.1075C49.9542 51.1311 50.0059 51.1656 50.0495 51.2091C50.093 51.2527 50.1275 51.3044 50.151 51.3612C50.1746 51.4181 50.1866 51.4791 50.1866 51.5406V53.4152C50.1866 53.6743 49.977 53.8839 49.718 53.8839ZM48.312 52.9465H49.2492V52.0093H48.312V52.9465ZM45.9687 53.8839H44.0941C44.0326 53.884 43.9716 53.8719 43.9147 53.8483C43.8579 53.8248 43.8062 53.7902 43.7627 53.7467C43.7191 53.7032 43.6846 53.6515 43.6611 53.5946C43.6376 53.5377 43.6255 53.4767 43.6255 53.4152V51.5406C43.6255 51.2815 43.835 51.0719 44.0941 51.0719H45.9687C46.2278 51.0719 46.4374 51.2815 46.4374 51.5406V53.4152C46.4374 53.6743 46.2278 53.8839 45.9687 53.8839ZM44.5628 52.9465H45.5V52.0093H44.5628V52.9465ZM36.5957 52.0093H27.2225C27.161 52.0093 27.1 51.9972 27.0432 51.9737C26.9863 51.9501 26.9346 51.9156 26.8911 51.8721C26.8476 51.8286 26.8131 51.7769 26.7895 51.72C26.766 51.6631 26.7539 51.6022 26.7539 51.5406C26.7539 51.2815 26.9636 51.0719 27.2225 51.0719H36.5957C36.6572 51.0719 36.7182 51.084 36.7751 51.1075C36.8319 51.1311 36.8836 51.1656 36.9271 51.2091C36.9707 51.2527 37.0052 51.3044 37.0287 51.3612C37.0523 51.4181 37.0643 51.4791 37.0643 51.5406C37.0643 51.6022 37.0522 51.6631 37.0287 51.72C37.0051 51.7769 36.9706 51.8286 36.9271 51.8721C36.8836 51.9156 36.8319 51.9501 36.775 51.9737C36.7182 51.9972 36.6572 52.0093 36.5957 52.0093ZM31.9092 53.8839H27.2227C27.1611 53.884 27.1001 53.8719 27.0433 53.8483C26.9864 53.8248 26.9347 53.7902 26.8912 53.7467C26.8476 53.7032 26.8131 53.6515 26.7896 53.5946C26.7661 53.5377 26.754 53.4767 26.754 53.4152C26.754 53.3536 26.7661 53.2927 26.7896 53.2358C26.8132 53.1789 26.8477 53.1273 26.8912 53.0837C26.9347 53.0402 26.9864 53.0057 27.0433 52.9822C27.1002 52.9586 27.1611 52.9465 27.2227 52.9465H31.9092C31.9708 52.9465 32.0317 52.9586 32.0886 52.9822C32.1455 53.0057 32.1971 53.0402 32.2407 53.0837C32.2842 53.1273 32.3187 53.1789 32.3422 53.2358C32.3658 53.2927 32.3779 53.3536 32.3779 53.4152C32.3779 53.6743 32.1682 53.8839 31.9092 53.8839Z" fill="#020724"/>
<path d="M69.6046 40.3795L72.3156 47.6194C72.4314 47.9291 72.4633 48.264 72.408 48.59C72.3527 48.916 72.2122 49.2216 72.0006 49.4757C71.8846 49.6271 71.7421 49.7562 71.58 49.8566C71.3776 49.9978 71.1493 50.0976 70.9082 50.1504C70.6672 50.2032 70.4181 50.2078 70.1752 50.1641L68.3082 49.8337C67.8225 51.8459 67.1235 53.8006 66.2232 55.6646L65.723 56.624C63.4713 60.8833 60.2177 64.5313 56.2427 67.2537C49.6906 71.7677 41.6137 73.494 33.7889 72.0528C25.964 70.6117 19.0321 66.1211 14.5181 59.569C13.1881 57.6398 12.0914 55.5599 11.251 53.3726C11.1153 52.9208 11.155 52.4345 11.362 52.0106C11.5691 51.5867 11.9282 51.2565 12.368 51.0857C12.8077 50.9149 13.2956 50.9162 13.7345 51.0892C14.1733 51.2622 14.5308 51.5943 14.7357 52.0192C15.4798 53.9315 16.443 55.7511 17.6062 57.4415C20.2102 61.2238 23.7609 64.2567 27.9037 66.2376C32.0466 68.2184 36.6365 69.0778 41.2153 68.73C45.7941 68.3822 50.2016 66.8394 53.9977 64.2555C57.7938 61.6716 60.8456 58.1372 62.8485 54.005L62.9237 53.8166C63.6436 52.3185 64.2121 50.7522 64.6206 49.1411L62.3518 48.7232C62.0169 48.6619 61.705 48.5105 61.4496 48.2854C61.1942 48.0602 61.0049 47.7697 60.9021 47.4451C60.795 47.1323 60.7726 46.7967 60.837 46.4723C60.9015 46.148 61.0506 45.8465 61.2692 45.5984L66.3816 39.7994C66.5933 39.5413 66.8701 39.3444 67.1833 39.229C67.4965 39.1137 67.8349 39.084 68.1634 39.1432C68.492 39.2023 68.7987 39.3481 69.0521 39.5654C69.3055 39.7827 69.4962 40.0638 69.6046 40.3795Z" fill="#020724"/>
<path d="M63.3594 24.7055C64.6894 26.6347 65.7861 28.7147 66.6266 30.9019C66.783 31.3035 66.7964 31.7468 66.6644 32.1571C66.5323 32.5674 66.263 32.9196 65.9016 33.1546C65.7949 33.2519 65.6754 33.3342 65.5465 33.3993C65.0843 33.5771 64.5704 33.5649 64.1172 33.3652C63.664 33.1656 63.3081 32.7947 63.1274 32.3336C62.3934 30.3948 61.4348 28.5487 60.2714 26.833C57.6673 23.0508 54.1166 20.0178 49.9738 18.037C45.831 16.0561 41.241 15.1967 36.6622 15.5445C32.0834 15.8923 27.6759 17.4352 23.8798 20.019C20.0837 22.6029 17.0319 26.1374 15.029 30.2695C14.2753 31.831 13.685 33.4661 13.2675 35.1489L15.5257 35.5513C15.8606 35.6126 16.1725 35.764 16.4279 35.9892C16.6833 36.2143 16.8726 36.5048 16.9754 36.8294C17.0825 37.1423 17.105 37.4779 17.0405 37.8022C16.976 38.1265 16.8269 38.428 16.6083 38.6761L11.4959 44.4752L11.136 44.7459C10.9336 44.8871 10.7053 44.9869 10.4643 45.0397C10.2232 45.0924 9.9741 45.0971 9.73123 45.0534C9.39476 44.9955 9.08046 44.8469 8.82225 44.6236C8.56404 44.4002 8.37172 44.1106 8.26604 43.7859L5.55508 36.546C5.44357 36.2375 5.41495 35.9051 5.47208 35.5821C5.5292 35.2591 5.67009 34.9567 5.88065 34.7051C6.09237 34.4385 6.37272 34.2345 6.69159 34.1151C7.01046 33.9957 7.35583 33.9654 7.69063 34.0274L9.55383 34.4514C10.0566 32.4424 10.764 30.4902 11.6649 28.6254C13.9555 23.9058 17.4437 19.8694 21.7814 16.9189C26.1191 13.9684 31.1547 12.207 36.3857 11.8103C41.6168 11.4137 46.8604 12.3957 51.5934 14.6584C56.3264 16.921 60.3834 20.3853 63.3594 24.7055Z" fill="#020724"/>
</svg>
