<svg width="60" height="54" viewBox="0 0 60 54" fill="none" xmlns="http://www.w3.org/2000/svg">
<path d="M52.9583 20.4783V42.2174M14.2917 20.4783V42.2174M7.04167 20.4783V42.2174M45.7083 20.4783V42.2174M5.83333 46.5652H54.1667M1 52H59M30 24.8261H27.5833C26.9424 24.8261 26.3277 25.0551 25.8745 25.4628C25.4213 25.8705 25.1667 26.4234 25.1667 27V27.8152C25.1667 28.2856 25.3363 28.7433 25.65 29.1196C25.9637 29.4959 26.4047 29.7705 26.9067 29.9022L33.0933 31.5261C33.5953 31.6578 34.0363 31.9324 34.35 32.3087C34.6637 32.685 34.8333 33.1427 34.8333 33.613V35.6956C34.8333 36.2722 34.5787 36.8252 34.1255 37.2328C33.6723 37.6405 33.0576 37.8696 32.4167 37.8696H30M30 24.8261H32.4167C33.0576 24.8261 33.6723 25.0551 34.1255 25.4628C34.5787 25.8705 34.8333 26.4234 34.8333 27V28.087M30 24.8261V20.4783M30 37.8696H27.5833C26.9424 37.8696 26.3277 37.6405 25.8745 37.2328C25.4213 36.8252 25.1667 36.2722 25.1667 35.6956V34.6087M30 37.8696V42.2174M57.7917 14.5V16.1304H2.20833V14.5C14.2917 10.6957 21.5417 7.43478 29.3958 2H30.6042C38.4583 7.43478 45.7083 10.6957 57.7917 14.5Z" stroke="#020724" stroke-width="4"/>
</svg>
