<svg width="44" height="45" viewBox="0 0 44 45" fill="none" xmlns="http://www.w3.org/2000/svg">
<path d="M30.8219 26.975C28.6281 24.7812 28.6281 21.2187 30.8219 19.025L31.2625 18.5844C32.3594 17.4875 34.1406 17.4875 35.2375 18.5844L38.35 21.6969C40.675 17.9187 40.6844 12.9781 37.9094 9.37811C35.7659 6.57709 32.6194 5.20014 29.4822 5.20084C29.4643 4.20381 29.1631 3.21697 28.5295 2.39233C26.9263 0.305569 24.051 -0.0682601 22 1.36283C19.9162 -0.0915805 17.0496 0.336857 15.4704 2.39233C14.8368 3.21697 14.5356 4.20381 14.5177 5.20084C11.3806 5.20014 8.2341 6.57709 6.09062 9.37811C3.31562 12.9781 3.325 17.9187 5.65 21.6969C6.91586 20.4311 6.31996 21.027 8.7625 18.5844C9.85937 17.4875 11.6406 17.4875 12.7375 18.5844L13.1781 19.025C15.3719 21.2187 15.3719 24.7812 13.1781 26.975L11.8 28.3531L17.725 34.3344C20.0875 36.725 23.9125 36.725 26.275 34.3344L32.2 28.3531L30.8219 26.975ZM30.475 8.95623C30.625 8.45936 31.15 8.17811 31.6469 8.32811C32.8188 8.68436 33.9062 9.33123 34.7875 10.1844C36.2125 11.5812 37 13.4375 37 15.3969C37 15.9219 36.5781 16.3344 36.0625 16.3344C35.5469 16.3344 35.125 15.9219 35.125 15.3969C35.125 13.9437 34.5438 12.5656 33.475 11.525C32.8 10.8687 32.0031 10.4 31.1031 10.1281C30.6062 9.97811 30.325 9.45311 30.475 8.95623ZM16.9573 3.5349C18.0828 2.06959 20.1295 2.02576 21.3336 3.24287C21.6861 3.59901 22.3141 3.59901 22.6666 3.24287C23.8779 2.01932 25.9214 2.0751 27.0428 3.5349C27.9419 4.7049 27.793 6.42299 26.6963 7.53158L22.8877 11.3818C22.4125 11.8615 21.5876 11.8615 21.1125 11.3818L17.3039 7.53158C16.207 6.42299 16.0582 4.70502 16.9573 3.5349ZM28.1031 27.1531L25.0188 30.1719C24.6138 30.5566 24.0325 30.5158 23.6969 30.1625C23.3313 29.7875 23.3406 29.1969 23.7062 28.8312L26.7906 25.8125C27.1562 25.4469 27.7563 25.4562 28.1125 25.8312C28.4781 26.1969 28.4687 26.7875 28.1031 27.1531ZM2.3125 41.75H13.5625V42.6875C13.5625 43.723 12.7231 44.5625 11.6875 44.5625H4.1875C3.15203 44.5625 2.3125 43.723 2.3125 42.6875V41.75ZM12.1643 31.384L16 35.2625C15.8219 35.6375 15.5781 35.9844 15.2781 36.2844C14.3395 37.2231 13.5625 37.8174 13.5625 39.875H2.3125V37.4469C2.3125 35.2414 0.4375 35.077 0.4375 32.9281V23.6187C0.4375 22.625 0.83125 21.6687 1.53438 20.9656L2.71563 19.7844C3.07188 20.9281 3.60625 22.025 4.29062 23.0562C3.37809 23.9688 3.48754 25.1124 4.1875 25.8125L10.0871 19.9129C10.4532 19.5468 11.0467 19.5468 11.4128 19.9129L11.8483 20.3484C13.3128 21.8129 13.3128 24.1872 11.8483 25.6517L8.875 28.625L10.2009 29.9507C10.5524 30.3024 10.75 30.7792 10.75 31.2766V35.1875C10.75 35.1875 11.882 33.2701 12.1643 31.384ZM30.4375 41.75H41.6875V42.6875C41.6875 43.723 40.848 44.5625 39.8125 44.5625H32.3125C31.2769 44.5625 30.4375 43.723 30.4375 42.6875V41.75ZM43.5625 23.6187V32.9281C43.5625 35.0769 41.6875 35.2414 41.6875 37.4469V39.875H30.4375C30.4375 37.8174 29.6605 37.2231 28.7219 36.2844C28.4219 35.9844 28.1781 35.6375 28 35.2625L31.8357 31.384C32.118 33.2701 33.25 35.1875 33.25 35.1875V32.375V31.2766C33.25 30.7792 33.4476 30.3024 33.7991 29.9507L35.125 28.625L32.1516 25.6516C30.6871 24.1871 30.6871 21.8128 32.1516 20.3483L32.5871 19.9128C32.9532 19.5467 33.5467 19.5467 33.9128 19.9128L39.8125 25.8125C40.5125 25.1124 40.6219 23.9688 39.7094 23.0562C40.3937 22.025 40.9281 20.9281 41.2844 19.7844L42.4656 20.9656C43.1688 21.6687 43.5625 22.625 43.5625 23.6187Z" fill="#020724"/>
</svg>
