<svg width="44" height="43" viewBox="0 0 44 43" fill="none" xmlns="http://www.w3.org/2000/svg">
<path opacity="0.5" d="M18.8414 3.5835C17.1098 3.5835 15.7061 4.98727 15.7061 6.71891C15.7061 8.45056 17.1098 9.85433 18.8414 9.85433H26.0081C27.7397 9.85433 29.1435 8.45056 29.1435 6.71891C29.1435 4.98727 27.7397 3.5835 26.0081 3.5835H18.8414Z" fill="#020724"/>
<path opacity="0.5" d="M7.84552 29.0345C6.30836 22.8858 5.53979 19.8115 7.15378 17.7444C8.76777 15.6772 11.9367 15.6772 18.2745 15.6772H26.5711C32.9091 15.6772 36.0781 15.6772 37.692 17.7444C39.3059 19.8115 38.5375 22.8858 37.0002 29.0345C36.0225 32.9452 35.5337 34.9004 34.0757 36.0388C32.6176 37.1772 30.6022 37.1772 26.5711 37.1772H18.2745C14.2436 37.1772 12.2281 37.1772 10.77 36.0388C9.312 34.9004 8.82318 32.9452 7.84552 29.0345Z" fill="#020724"/>
<path fill-rule="evenodd" clip-rule="evenodd" d="M9.20853 16.3359L14.3262 23.6926L21.0056 15.6772H23.7574L30.4369 23.6926L35.5704 16.3131C36.4786 16.6193 37.1673 17.0727 37.6917 17.7444C37.7197 17.7802 37.7469 17.8162 37.7732 17.8526L32.2212 25.8337L36.5072 30.977C36.1794 32.2288 35.885 33.2193 35.5399 34.0142L30.6295 28.1218L24.33 37.1772H20.4331L14.1336 28.1218L9.27729 33.9492C8.93736 33.1494 8.64517 32.1552 8.31828 30.9021L12.5419 25.8337L7.03027 17.9108C7.06969 17.8546 7.11076 17.7991 7.1535 17.7444C7.66511 17.0891 8.33299 16.6416 9.20853 16.3359ZM22.3816 35.2722L15.9179 25.9806L22.3816 18.2241L28.8452 25.9806L22.3816 35.2722Z" fill="#020724"/>
<path d="M28.8389 8.067C29.0336 7.65868 29.1426 7.20162 29.1426 6.71911C29.1426 6.23885 29.0347 5.7838 28.8417 5.37695C30.0663 5.38586 31.0208 5.44206 31.8729 5.77506C32.8909 6.17294 33.7763 6.84929 34.428 7.72678C35.0853 8.612 35.394 9.74665 35.8187 11.3084L35.9018 11.6136L36.8204 16.9223C36.0883 16.4171 35.1441 16.117 33.9227 15.9386L33.2754 12.1976C32.7671 10.3348 32.5826 9.74939 32.2703 9.3291C31.9195 8.85662 31.4427 8.49243 30.8944 8.27818C30.5006 8.12426 30.0248 8.07898 28.8389 8.067Z" fill="#020724"/>
<path d="M16.0069 5.37695C15.8139 5.78382 15.7059 6.23885 15.7059 6.71911C15.7059 7.20162 15.8149 7.65868 16.0096 8.067C14.8238 8.07898 14.3479 8.12426 13.9541 8.27818C13.406 8.49243 12.9292 8.85662 12.5783 9.3291C12.2662 9.74939 12.0816 10.3348 11.5732 12.1976L10.9259 15.9385C9.70477 16.1167 8.76056 16.4167 8.02832 16.9215L8.9468 11.6136L9.02992 11.3084C9.45468 9.74667 9.76328 8.612 10.4207 7.72678C11.0724 6.84929 11.9578 6.17294 12.9758 5.77506C13.8278 5.44208 14.7823 5.38586 16.0069 5.37695Z" fill="#020724"/>
</svg>
