<svg width="43" height="43" viewBox="0 0 43 43" fill="none" xmlns="http://www.w3.org/2000/svg">
<path opacity="0.5" d="M17.9596 3.5835C16.228 3.5835 14.8242 4.98727 14.8242 6.71891C14.8242 8.45056 16.228 9.85433 17.9596 9.85433H25.1262C26.8579 9.85433 28.2616 8.45056 28.2616 6.71891C28.2616 4.98727 26.8579 3.5835 25.1262 3.5835H17.9596Z" fill="white"/>
<path opacity="0.5" d="M6.96369 29.0345C5.42653 22.8858 4.65796 19.8115 6.27194 17.7444C7.88593 15.6772 11.0549 15.6772 17.3927 15.6772H25.6893C32.0273 15.6772 35.1962 15.6772 36.8102 17.7444C38.4241 19.8115 37.6556 22.8858 36.1184 29.0345C35.1407 32.9452 34.6519 34.9004 33.1938 36.0388C31.7358 37.1772 29.7203 37.1772 25.6893 37.1772H17.3927C13.3617 37.1772 11.3462 37.1772 9.88821 36.0388C8.43017 34.9004 7.94135 32.9452 6.96369 29.0345Z" fill="white"/>
<path fill-rule="evenodd" clip-rule="evenodd" d="M8.32669 16.3359L13.4444 23.6926L20.1237 15.6772H22.8755L29.5551 23.6926L34.6885 16.3131C35.5967 16.6193 36.2854 17.0727 36.8099 17.7444C36.8378 17.7802 36.8651 17.8162 36.8914 17.8526L31.3394 25.8337L35.6254 30.977C35.2975 32.2288 35.0032 33.2193 34.6581 34.0142L29.7477 28.1218L23.4482 37.1772H19.5513L13.2517 28.1218L8.39546 33.9492C8.05552 33.1494 7.76334 32.1552 7.43645 30.9021L11.6601 25.8337L6.14844 17.9108C6.18785 17.8546 6.22892 17.7991 6.27167 17.7444C6.78328 17.0891 7.45116 16.6416 8.32669 16.3359ZM21.4997 35.2722L15.0361 25.9806L21.4997 18.2241L27.9633 25.9806L21.4997 35.2722Z" fill="white"/>
<path d="M27.957 8.067C28.1518 7.65868 28.2607 7.20162 28.2607 6.71911C28.2607 6.23885 28.1529 5.7838 27.9599 5.37695C29.1845 5.38586 30.1389 5.44206 30.991 5.77506C32.0091 6.17294 32.8945 6.84929 33.5461 7.72678C34.2035 8.612 34.5122 9.74665 34.9368 11.3084L35.02 11.6136L35.9385 16.9223C35.2065 16.4171 34.2623 16.117 33.0409 15.9386L32.3936 12.1976C31.8853 10.3348 31.7007 9.74939 31.3884 9.3291C31.0376 8.85662 30.5609 8.49243 30.0126 8.27818C29.6188 8.12426 29.1429 8.07898 27.957 8.067Z" fill="white"/>
<path d="M15.125 5.37695C14.932 5.78382 14.8241 6.23885 14.8241 6.71911C14.8241 7.20162 14.933 7.65868 15.1277 8.067C13.9419 8.07898 13.4661 8.12426 13.0723 8.27818C12.5241 8.49243 12.0474 8.85662 11.6965 9.3291C11.3843 9.74939 11.1998 10.3348 10.6914 12.1976L10.044 15.9385C8.82293 16.1167 7.87872 16.4167 7.14648 16.9215L8.06496 11.6136L8.14808 11.3084C8.57285 9.74667 8.88144 8.612 9.53886 7.72678C10.1905 6.84929 11.076 6.17294 12.094 5.77506C12.946 5.44208 13.9004 5.38586 15.125 5.37695Z" fill="white"/>
</svg>
