<svg width="50" height="50" viewBox="0 0 50 50" fill="none" xmlns="http://www.w3.org/2000/svg">
<path d="M17.87 0L15.6839 17.5351H20.4821L25.9865 1.01868L17.87 0ZM28.1502 0.90149L22.6121 17.5351L39.3946 17.5464L43.2399 5.98364L28.1502 0.90149ZM15.583 2.10047L7.52242 2.98393L9.10314 17.5351H13.6659L15.583 2.10047ZM2.57848 14.1545C1.28924 14.1545 0.428251 15.1462 0.193946 16.0927C0.0773542 16.566 0.143498 16.9491 0.275785 17.1632C0.406951 17.3661 0.588565 17.5351 1.23318 17.5351H7.07399L6.70404 14.1545H2.57848ZM42.6457 14.1545L41.5247 17.5351H46.8498C46.5583 16.9717 46.435 16.3744 46.5135 15.7772C46.5919 15.1912 46.8161 14.6616 47.1076 14.1545H42.6457ZM0 19.5635V47.3857C0 47.9604 0.31278 48.6365 0.826233 49.1549C1.34081 49.6732 2.01794 49.9887 2.57848 49.9887L45.6278 50C46.1883 50 46.861 49.6845 47.3767 49.1661C47.8924 48.6478 48.2063 47.9716 48.2063 47.3969V39.3962H38.4529C33.5202 39.3962 33.5202 30.156 38.4529 30.156H48.2063V19.5747L0 19.5635ZM38.4529 32.1843C36.2108 32.1843 36.2108 37.3679 38.4529 37.3679H40.9529C39.9439 36.9397 39.2377 35.9368 39.2377 34.7761C39.2377 33.6154 39.9439 32.6125 40.9529 32.1843H38.4529ZM43.1278 32.1843C44.1368 32.6125 44.843 33.6154 44.843 34.7761C44.843 35.9368 44.1368 36.9397 43.1278 37.3679H50V32.1843H43.1278ZM42.0404 33.9873C41.5919 33.9873 41.2556 34.3253 41.2556 34.7761C41.2556 35.2268 41.5919 35.5649 42.0404 35.5649C42.4888 35.5649 42.8251 35.2268 42.8251 34.7761C42.8251 34.3253 42.4888 33.9873 42.0404 33.9873Z" fill="#020724"/>
</svg>
