<svg width="50" height="43" viewBox="0 0 50 43" fill="none" xmlns="http://www.w3.org/2000/svg">
<path d="M40.7895 28.4211C38.9474 28.4211 37.6316 26.8421 37.6316 25.2632C37.6316 23.4211 39.2105 22.1053 40.7895 22.1053C42.3684 22.1053 43.9474 23.6842 43.9474 25.2632C44.2105 26.8421 42.6316 28.4211 40.7895 28.4211ZM40.7895 15.7895C35.7895 15.7895 31.5789 20 31.5789 25C31.5789 31.8421 40.7895 42.1053 40.7895 42.1053C40.7895 42.1053 50 31.8421 50 25C50 20 45.7895 15.7895 40.7895 15.7895ZM31.3158 13.9474C30.5263 10.5263 27.3684 7.89474 23.6842 7.89474C19.2105 7.89474 15.7895 11.3158 15.7895 15.7895C15.7895 20.2632 19.2105 23.6842 23.6842 23.6842C24.7368 23.6842 25.5263 23.4211 26.3158 23.1579C26.8421 19.4737 28.6842 16.3158 31.3158 13.9474ZM26.3158 26.3158H10.5263C10.5263 24.9199 9.97181 23.5812 8.98477 22.5942C7.99774 21.6071 6.65903 21.0526 5.26316 21.0526V10.5263C6.65903 10.5263 7.99774 9.9718 8.98477 8.98477C9.97181 7.99774 10.5263 6.65903 10.5263 5.26316H36.8421C36.8421 6.65903 37.3966 7.99774 38.3836 8.98477C39.3707 9.9718 40.7094 10.5263 42.1053 10.5263C42.1053 10.5263 44.7368 10.5263 47.3684 12.1053V0H0V31.5789H27.6316C27.1053 29.7368 26.5789 28.1579 26.3158 26.3158Z" fill="#020724"/>
</svg>
