<svg width="78" height="128" viewBox="0 0 78 128" fill="none" xmlns="http://www.w3.org/2000/svg">
<g clip-path="url(#clip0_1490_1502)">
<path d="M27.5454 85.3515L28.2599 81.2998C26.7257 80.5249 25.7292 78.9378 25.7292 77.1931V77.1538C25.7292 77.148 25.7307 77.1421 25.7307 77.1364C17.5136 73.2235 12.25 64.9687 12.25 55.8125C12.25 55.0877 12.837 54.5 13.5625 54.5C14.288 54.5 14.875 55.0877 14.875 55.8125C14.875 63.8247 19.4082 71.0651 26.5169 74.6077C27.5012 73.1639 29.2862 72.3502 31.1106 72.6652C33.1844 73.0327 34.7065 74.7648 34.8906 76.7861C35.539 76.8163 36.2112 76.8163 36.8595 76.7861C37.0435 74.765 38.5658 73.0327 40.6395 72.6652C40.902 72.6127 41.1645 72.5995 41.427 72.5995C42.9627 72.5995 44.3933 73.3739 45.2333 74.6077C52.3418 71.0651 56.875 63.8247 56.875 55.8125C56.875 55.0877 57.462 54.5 58.1875 54.5C58.913 54.5 59.5 55.0877 59.5 55.8125C59.5 64.9687 54.2364 73.2235 46.0191 77.1364C46.0191 77.1421 46.0206 77.148 46.0206 77.1538C46.0469 78.9115 45.0372 80.5249 43.49 81.2998L44.2045 85.3515C46.186 83.7827 49.1207 83.7843 51.1525 85.6456C53.1869 87.5094 53.41 90.6856 51.835 92.9562L47.5169 99.1906C46.5456 100.595 44.6294 100.936 43.2381 99.9387L37.0431 95.5681C36.5969 95.24 36.2031 94.8725 35.875 94.4394C35.5469 94.8725 35.1531 95.24 34.7069 95.5681L28.5119 99.9387C27.1206 100.936 25.2044 100.595 24.2331 99.1906L19.915 92.9562C18.34 90.6856 18.5631 87.5094 20.5975 85.6456C22.6291 83.7843 25.5638 83.7827 27.5454 85.3515ZM30.6644 75.2506C30.5462 75.2375 30.4281 75.2244 30.31 75.2244C29.3781 75.2244 28.5513 75.8938 28.3806 76.8519C28.1849 77.9088 28.8981 78.9251 29.951 79.1304C29.9592 79.1317 29.9669 79.1284 29.9751 79.1299C29.9822 79.1312 29.9873 79.1361 29.9943 79.1374C31.0611 79.3053 32.0701 78.589 32.2525 77.5344C32.4494 76.4581 31.7275 75.4475 30.6644 75.2506ZM43.3694 76.8519C43.1856 75.7756 42.1619 75.0669 41.0856 75.2506C40.0225 75.4475 39.3006 76.4581 39.4975 77.5344C39.6798 78.589 40.6889 79.3053 41.7557 79.1374C41.7627 79.1361 41.7678 79.1312 41.7749 79.1299C41.7831 79.1284 41.7908 79.1319 41.799 79.1305C42.8519 78.9253 43.5651 77.9089 43.3694 76.8519ZM39.4056 92.615L42.6606 94.925C43.1069 95.2531 43.645 95.4238 44.1831 95.4238C44.3275 95.4238 44.485 95.4106 44.6425 95.3844C45.3381 95.2531 45.9419 94.8594 46.3487 94.2819L48.6063 90.9875C49.0263 90.3969 48.8688 89.5831 48.2781 89.1631C47.6744 88.7562 46.8606 88.9137 46.4537 89.5044L44.1831 92.7988L40.9281 90.4756C40.3375 90.0556 39.5237 90.2 39.1037 90.7906C38.6837 91.3813 38.815 92.195 39.4056 92.615ZM35.875 87.4437C37.2925 85.7506 39.5763 85.1338 41.6106 85.79C41.6131 85.7908 41.6155 85.7921 41.618 85.793L40.9068 81.7608C40.9052 81.7606 40.9035 81.7608 40.9019 81.7606C39.4187 81.5769 38.1063 80.6844 37.4106 79.385C37.4103 79.3843 37.41 79.3834 37.4096 79.3827C36.9148 79.4157 36.4061 79.4375 35.875 79.4375C35.3439 79.4375 34.8353 79.4157 34.3404 79.3827C34.34 79.3834 34.3397 79.3843 34.3394 79.385C33.6438 80.6844 32.3312 81.5769 30.8481 81.7606C30.8465 81.7608 30.8448 81.7606 30.8432 81.7608L30.132 85.793C30.1345 85.7921 30.1369 85.7908 30.1394 85.79C32.1738 85.1338 34.4575 85.7506 35.875 87.4437ZM23.1437 90.9875L25.4013 94.2819C25.8081 94.8594 26.4119 95.2531 27.1075 95.3844C27.265 95.4106 27.4225 95.4238 27.5669 95.4238C28.105 95.4238 28.6431 95.2531 29.0894 94.9381L32.3444 92.615C32.935 92.195 33.0663 91.3813 32.6463 90.7906C32.2263 90.2 31.4125 90.0556 30.8219 90.4756L27.5669 92.7988L25.2962 89.5044C24.8894 88.9137 24.0756 88.7562 23.4719 89.1631C22.8812 89.5831 22.7237 90.3969 23.1437 90.9875ZM34.5625 110.938V116.188C34.5625 116.912 35.1495 117.5 35.875 117.5C36.6005 117.5 37.1875 116.912 37.1875 116.188V110.938C37.1875 110.213 36.6005 109.625 35.875 109.625C35.1495 109.625 34.5625 110.213 34.5625 110.938ZM56.3341 97.8125C55.9713 98.4405 56.1868 99.243 56.8148 99.6057L61.3624 102.231C61.5688 102.35 61.7944 102.406 62.0174 102.406C62.4712 102.406 62.912 102.171 63.1556 101.75C63.5184 101.122 63.303 100.32 62.6749 99.9568L58.1273 97.3318C57.5017 96.9697 56.6981 97.1845 56.3341 97.8125ZM8.59452 101.75C8.83799 102.171 9.27899 102.406 9.73279 102.406C9.95575 102.406 10.1813 102.35 10.3877 102.231L14.9354 99.6057C15.5634 99.243 15.7788 98.4405 15.4161 97.8125C15.0533 97.1845 14.2498 96.9697 13.6229 97.3318L9.07522 99.9568C8.44703 100.32 8.23178 101.122 8.59452 101.75ZM20.9568 109.214C20.5941 109.841 20.8095 110.644 21.4375 111.007C21.6439 111.126 21.8695 111.182 22.0924 111.182C22.5462 111.182 22.9871 110.947 23.2307 110.526L24.5432 108.253C24.9059 107.626 24.6905 106.822 24.0625 106.46C23.4369 106.096 22.6334 106.312 22.2693 106.94L20.9568 109.214ZM7 86C7 86.7248 7.58702 87.3125 8.3125 87.3125H10.9375C11.663 87.3125 12.25 86.7248 12.25 86C12.25 85.2752 11.663 84.6875 10.9375 84.6875H8.3125C7.58702 84.6875 7 85.2752 7 86ZM47.2068 108.253L48.5193 110.526C48.7628 110.947 49.2038 111.182 49.6576 111.182C49.8805 111.182 50.1061 111.126 50.3125 111.007C50.9405 110.644 51.1559 109.841 50.7932 109.214L49.4807 106.94C49.118 106.312 48.3155 106.096 47.6875 106.46C47.0595 106.822 46.8441 107.626 47.2068 108.253ZM60.8125 87.3125H63.4375C64.163 87.3125 64.75 86.7248 64.75 86C64.75 85.2752 64.163 84.6875 63.4375 84.6875H60.8125C60.087 84.6875 59.5 85.2752 59.5 86C59.5 86.7248 60.087 87.3125 60.8125 87.3125Z" fill="#020724"/>
</g>
<g clip-path="url(#clip1_1490_1502)">
<path d="M62.6953 8.80841L60.9015 8.44679C52.6649 6.80166 44.6849 4.06291 37.1774 0.306284C36.3578 -0.102095 35.3895 -0.102095 34.5699 0.306284C27.0624 4.06291 19.0824 6.80166 10.8458 8.44666L9.05203 8.80828C7.6899 9.07953 6.70703 10.2754 6.70703 11.6667V22.4088C6.70703 35.07 11.6362 46.9729 20.5904 55.9242L33.8117 69.1454C34.3804 69.7142 35.127 70 35.8738 70C36.6204 70 37.3672 69.7142 37.9359 69.1454L51.1572 55.9242C60.1113 46.9729 65.0406 35.07 65.0406 22.4088V11.6667C65.0403 10.2754 64.0574 9.07966 62.6953 8.80841ZM30.0403 17.5C31.6503 17.5 32.9569 18.8067 32.9569 20.4167C32.9569 22.0267 31.6503 23.3333 30.0403 23.3333C28.4303 23.3333 27.1237 22.0267 27.1237 20.4167C27.1237 18.8067 28.4303 17.5 30.0403 17.5ZM30.0403 29.1667C31.6503 29.1667 32.9569 30.4733 32.9569 32.0833C32.9569 33.6933 31.6503 35 30.0403 35C28.4303 35 27.1237 33.6934 27.1237 32.0834C27.1237 30.4734 28.4303 29.1667 30.0403 29.1667ZM24.207 29.1667C22.597 29.1667 21.2904 27.86 21.2904 26.25C21.2904 24.64 22.597 23.3334 24.207 23.3334C25.817 23.3334 27.1237 24.64 27.1237 26.25C27.1237 27.86 25.817 29.1667 24.207 29.1667ZM24.207 11.6667C25.817 11.6667 27.1237 12.9733 27.1237 14.5833C27.1237 16.1933 25.817 17.5 24.207 17.5C22.597 17.5 21.2904 16.1934 21.2904 14.5834C21.2904 12.9734 22.597 11.6667 24.207 11.6667ZM18.3737 17.5C19.9837 17.5 21.2903 18.8067 21.2903 20.4167C21.2903 22.0267 19.9837 23.3333 18.3737 23.3333C16.7637 23.3333 15.457 22.0267 15.457 20.4167C15.457 18.8067 16.7637 17.5 18.3737 17.5ZM18.3737 35C16.7637 35 15.457 33.6934 15.457 32.0834C15.457 30.4734 16.7637 29.1668 18.3737 29.1668C19.9837 29.1668 21.2903 30.4734 21.2903 32.0834C21.2903 33.6934 19.9837 35 18.3737 35ZM24.207 40.8334C22.597 40.8334 21.2904 39.5268 21.2904 37.9168C21.2904 36.3068 22.597 35 24.207 35C25.817 35 27.1237 36.3067 27.1237 37.9167C27.1237 39.5267 25.817 40.8334 24.207 40.8334ZM30.0403 46.6667C28.4303 46.6667 27.1237 45.36 27.1237 43.75C27.1237 42.14 28.4303 40.8334 30.0403 40.8334C31.6503 40.8334 32.9569 42.14 32.9569 43.75C32.9569 45.36 31.6503 46.6667 30.0403 46.6667ZM35.8737 52.5C34.2637 52.5 32.957 51.1934 32.957 49.5834C32.957 47.9734 34.2637 46.6668 35.8737 46.6668C37.4837 46.6668 38.7903 47.9734 38.7903 49.5834C38.7903 51.1934 37.4837 52.5 35.8737 52.5ZM35.8737 40.8334C34.2637 40.8334 32.957 39.5268 32.957 37.9168C32.957 36.3068 34.2637 35 35.8737 35C37.4837 35 38.7903 36.3067 38.7903 37.9167C38.7903 39.5267 37.4837 40.8334 35.8737 40.8334ZM35.8737 29.1667C34.2637 29.1667 32.957 27.86 32.957 26.25C32.957 24.64 34.2637 23.3334 35.8737 23.3334C37.4837 23.3334 38.7903 24.64 38.7903 26.25C38.7903 27.86 37.4837 29.1667 35.8737 29.1667ZM35.8737 17.5C34.2637 17.5 32.957 16.1934 32.957 14.5834C32.957 12.9734 34.2637 11.6667 35.8737 11.6667C37.4837 11.6667 38.7903 12.9733 38.7903 14.5833C38.7903 16.1933 37.4837 17.5 35.8737 17.5Z" fill="#020724"/>
</g>
<defs>
<clipPath id="clip0_1490_1502">
<rect width="43" height="84" fill="white" transform="matrix(-1 0 0 1 77.875 44)"/>
</clipPath>
<clipPath id="clip1_1490_1502">
<rect width="70" height="70" fill="white" transform="translate(0.875)"/>
</clipPath>
</defs>
</svg>
