<svg width="50" height="38" viewBox="0 0 50 38" fill="none" xmlns="http://www.w3.org/2000/svg">
<path d="M0 6.33333C0 4.65363 0.65848 3.04272 1.83058 1.85499C3.00269 0.66726 4.5924 0 6.25 0H43.75C45.4076 0 46.9973 0.66726 48.1694 1.85499C49.3415 3.04272 50 4.65363 50 6.33333V9.5H0V6.33333ZM0 15.8333V31.6667C0 33.3464 0.65848 34.9573 1.83058 36.145C3.00269 37.3327 4.5924 38 6.25 38H43.75C45.4076 38 46.9973 37.3327 48.1694 36.145C49.3415 34.9573 50 33.3464 50 31.6667V15.8333H0ZM9.375 22.1667H12.5C13.3288 22.1667 14.1237 22.5003 14.7097 23.0942C15.2958 23.688 15.625 24.4935 15.625 25.3333V28.5C15.625 29.3399 15.2958 30.1453 14.7097 30.7392C14.1237 31.333 13.3288 31.6667 12.5 31.6667H9.375C8.5462 31.6667 7.75134 31.333 7.16529 30.7392C6.57924 30.1453 6.25 29.3399 6.25 28.5V25.3333C6.25 24.4935 6.57924 23.688 7.16529 23.0942C7.75134 22.5003 8.5462 22.1667 9.375 22.1667Z" fill="#020724"/>
</svg>
