<svg width="60" height="60" viewBox="0 0 60 60" fill="none" xmlns="http://www.w3.org/2000/svg">
<path opacity="0.8" fill-rule="evenodd" clip-rule="evenodd" d="M30 3.125C31.0355 3.125 31.875 3.96448 31.875 5V10C31.875 11.0355 31.0355 11.875 30 11.875C28.9645 11.875 28.125 11.0355 28.125 10V5C28.125 3.96448 28.9645 3.125 30 3.125ZM3.125 30C3.125 28.9645 3.96448 28.125 5 28.125H10C11.0355 28.125 11.875 28.9645 11.875 30C11.875 31.0355 11.0355 31.875 10 31.875H5C3.96448 31.875 3.125 31.0355 3.125 30ZM48.125 30C48.125 28.9645 48.9645 28.125 50 28.125H55C56.0355 28.125 56.875 28.9645 56.875 30C56.875 31.0355 56.0355 31.875 55 31.875H50C48.9645 31.875 48.125 31.0355 48.125 30ZM30 48.125C31.0355 48.125 31.875 48.9645 31.875 50V55C31.875 56.0355 31.0355 56.875 30 56.875C28.9645 56.875 28.125 56.0355 28.125 55V50C28.125 48.9645 28.9645 48.125 30 48.125Z" fill="#020724"/>
<g opacity="0.5">
<path d="M13.6742 13.6742C14.4064 12.9419 15.5936 12.9419 16.3258 13.6742L17.184 14.5323C17.9162 15.2646 17.9162 16.4517 17.184 17.184C16.4517 17.9162 15.2646 17.9162 14.5323 17.184L13.6742 16.3258C12.9419 15.5936 12.9419 14.4064 13.6742 13.6742Z" fill="#020724"/>
<path d="M46.3265 13.6742C47.0588 14.4064 47.0588 15.5936 46.3265 16.3258L45.4685 17.184C44.7363 17.9162 43.549 17.9162 42.8168 17.184C42.0845 16.4517 42.0845 15.2646 42.8168 14.5323L43.675 13.6742C44.4073 12.9419 45.5943 12.9419 46.3265 13.6742Z" fill="#020724"/>
<path d="M17.1834 42.8165C17.9157 43.5488 17.9157 44.736 17.1834 45.4683L16.3258 46.3258C15.5936 47.058 14.4064 47.058 13.6742 46.3258C12.9419 45.5935 12.9419 44.4065 13.6742 43.6743L14.5318 42.8165C15.264 42.0843 16.4512 42.0843 17.1834 42.8165Z" fill="#020724"/>
<path d="M42.8168 42.8165C43.549 42.0843 44.7363 42.0843 45.4685 42.8165L46.326 43.6743C47.0583 44.4065 47.0583 45.5935 46.326 46.3258C45.5938 47.058 44.4068 47.058 43.6745 46.3258L42.8168 45.4683C42.0845 44.736 42.0845 43.5488 42.8168 42.8165Z" fill="#020724"/>
</g>
<path d="M17.5 27.6487C17.5 34.0045 22.5243 37.3915 26.2022 40.423C27.5 41.4928 28.75 42.5 30 42.5C31.25 42.5 32.5 41.4928 33.7978 40.423C37.4757 37.3915 42.5 34.0045 42.5 27.6487C42.5 21.2929 35.6248 16.7855 30 22.8959C24.3752 16.7855 17.5 21.2929 17.5 27.6487Z" fill="#020724"/>
</svg>
