<svg width="104" height="107" viewBox="0 0 104 107" fill="none" xmlns="http://www.w3.org/2000/svg">
<g clip-path="url(#clip0_1490_1512)">
<path d="M14.8001 65.2807C14.8001 56.967 21.563 50.2024 29.8818 50.2024C38.1904 50.2024 44.955 56.967 44.955 65.2807C44.955 70.3336 42.4576 74.8131 38.6337 77.5501C37.9508 78.9485 37.5639 80.5198 37.5639 82.1836C37.5639 84.1469 38.0997 85.9904 39.0343 87.5652C47.7913 83.9535 53.9722 75.3283 53.9722 65.2824C53.9722 54.2985 46.5845 45.0091 36.5198 42.1215L41.4443 37.6608V31.4697C41.4409 29.6775 39.9911 28.2739 38.2007 28.2739H21.5562C19.7658 28.2739 18.2988 29.6775 18.2988 31.4697V37.6591L23.2336 42.1181C13.1621 45.0091 5.78125 54.2967 5.78125 65.2807C5.78125 75.0373 11.6147 83.4571 19.978 87.2434C19.6819 85.6018 19.5295 83.9107 19.5295 82.1836C19.5295 80.3144 19.711 78.4829 20.0585 76.7113C16.8371 73.9452 14.8001 69.844 14.8001 65.2807Z" fill="#020724"/>
<path d="M58.0572 60.2344C58.3516 61.8725 58.5057 63.5568 58.5057 65.2805C58.5057 67.1582 58.3242 68.9932 57.9733 70.7716C61.1759 73.5394 63.2094 77.6269 63.2094 82.1817C63.2094 90.4954 56.4465 97.2634 48.1328 97.2634C39.8157 97.2634 33.0528 90.4971 33.0528 82.1817C33.0528 77.1117 35.5707 72.6168 39.422 69.8781C40.0999 68.4882 40.4781 66.9254 40.4781 65.2771C40.4781 63.3086 39.9355 61.4668 38.9992 59.8887C30.2302 63.4952 24.0391 72.1273 24.0391 82.18C24.0391 95.4644 34.8467 106.272 48.1328 106.272C61.4138 106.272 72.2214 95.4644 72.2214 82.18C72.2214 72.4371 66.4034 64.0241 58.0572 60.2344Z" fill="#020724"/>
</g>
<g clip-path="url(#clip1_1490_1512)">
<path d="M80.7403 9.39551C78.5738 7.22821 77.0909 3.44355 76.355 0C75.618 3.44426 74.1367 7.22971 71.9694 9.397C69.8029 11.5628 66.0171 13.0457 62.5742 13.7831C66.0185 14.519 69.8036 16.001 71.9701 18.1684C74.1366 20.3349 75.6195 24.1203 76.3565 27.5639C77.0924 24.1196 78.5749 20.3342 80.741 18.1669C82.9075 16.0004 86.6933 14.5182 90.1362 13.7808C86.6927 13.0449 82.9076 11.5621 80.7403 9.39551Z" fill="#020724"/>
<path d="M94.8136 26.7488C93.5204 25.455 92.633 23.1927 92.1934 21.1357C91.753 23.1927 90.8686 25.4549 89.574 26.7495C88.2794 28.0427 86.0176 28.9293 83.9609 29.3697C86.0183 29.81 88.2794 30.6952 89.574 31.9898C90.8686 33.2837 91.7545 35.5459 92.1949 37.6028C92.6344 35.5451 93.5204 33.2837 94.8142 31.9891C96.1081 30.6952 98.3703 29.8092 100.427 29.3682C98.3703 28.9286 96.1082 28.0427 94.8136 26.7488Z" fill="#020724"/>
<path d="M71.8641 31.1748C71.4944 32.9017 70.7519 34.8014 69.6652 35.888C68.5787 36.9738 66.6797 37.7179 64.9531 38.0877C66.6797 38.4582 68.5787 39.2 69.6652 40.2873C70.7519 41.3738 71.4959 43.2721 71.8656 44.9998C72.235 43.2721 72.9779 41.3739 74.0649 40.2866C75.1507 39.2001 77.05 38.4567 78.7763 38.0863C77.0501 37.7171 75.1507 36.9739 74.0642 35.8873C72.9779 34.8015 72.2335 32.9018 71.8641 31.1748Z" fill="#020724"/>
</g>
<defs>
<clipPath id="clip0_1490_1512">
<rect width="78" height="78" fill="white" transform="translate(0 28.2739)"/>
</clipPath>
<clipPath id="clip1_1490_1512">
<rect width="45" height="45" fill="white" transform="translate(59)"/>
</clipPath>
</defs>
</svg>
