<svg width="70" height="71" viewBox="0 0 70 71" fill="none" xmlns="http://www.w3.org/2000/svg">
<path d="M46.6587 3.38818L34.7259 17.1927L43.3605 12.5913L43.9673 12.2666L44.5739 12.5954L47.0778 13.9541L46.659 3.38818H46.6587ZM17.7473 6.63977L21.0799 24.4688L33.2093 18.0045L17.7473 6.63977ZM43.9585 15.172L11.3942 32.5264L26.2707 40.4007L58.7373 23.2083L43.9587 15.172H43.9585ZM49.8032 21.2814L53.3026 23.0628L26.3262 37.2734L17.1831 32.3942L20.6481 30.5612L26.3263 33.595L49.8036 21.2815L49.8032 21.2814ZM62.4073 23.7724L63.6504 27.0578L67.2352 23.9603L62.4072 23.7723L62.4073 23.7724ZM60.2495 25.2975L27.2706 42.7632L26.4801 54.1622L63.6761 34.3637L60.2495 25.2975ZM14.5086 27.9723L2.26367 31.2788L7.30531 33.9536L8.13834 31.7278L8.30924 31.2747L8.73662 31.0483L14.5089 27.9721L14.5086 27.9723ZM9.80029 34.5774L5.86115 45.1048L23.8867 54.6964L24.7282 42.4772L9.80016 34.5776L9.80029 34.5774ZM55.6481 41.533L31.8249 54.2137L39.3317 68.3558L44.5013 49.2318L63.9796 52.8719L55.648 41.5324L55.6481 41.533ZM14.5345 52.616L11.8769 58.7426L19.6868 55.3544L14.5342 52.6157L14.5345 52.616Z" fill="#020724"/>
</svg>
