<svg width="98" height="85" viewBox="0 0 98 85" fill="none" xmlns="http://www.w3.org/2000/svg">
<path d="M66.5009 7.46582L72.1184 10.7208H78.6284L81.8834 16.3908L87.5534 19.6458V26.1558L90.8084 31.7733L87.5534 37.3908V43.9008L81.8834 47.1558L78.6284 52.8258H72.1184L66.5009 56.0808L60.8834 52.8258H54.3734L51.1184 47.1558L45.4484 43.9008V37.3908L42.1934 31.7733L45.4484 26.1558V19.6458L51.1184 16.3908L54.3734 10.7208H60.8834L66.5009 7.46582Z" fill="#020724"/>
<path d="M66.5006 49.5711C56.6831 49.5711 48.7031 41.5911 48.7031 31.7736C48.7031 21.9561 56.6831 13.9761 66.5006 13.9761C76.3181 13.9761 84.2981 21.9561 84.2981 31.7736C84.2981 41.5911 76.3181 49.5711 66.5006 49.5711ZM66.5006 15.4986C57.5231 15.4986 50.2256 22.7961 50.2256 31.7736C50.2256 40.7511 57.5231 48.0486 66.5006 48.0486C75.4781 48.0486 82.7756 40.7511 82.7756 31.7736C82.7756 22.7961 75.4781 15.4986 66.5006 15.4986Z" fill="black"/>
<path d="M64.5586 38.3892L56.8411 32.2467C56.2111 31.7217 56.1061 30.8292 56.6311 30.1992C57.1561 29.5692 58.0486 29.4642 58.6786 29.9892L65.2936 35.2917L74.1136 25.4217C74.6386 24.8442 75.5836 24.7917 76.1611 25.3167C76.7386 25.8417 76.7911 26.7867 76.2661 27.3642L66.5536 38.2317C66.0286 38.8092 65.1361 38.8617 64.5586 38.3892Z" fill="#FFD77A"/>
<path d="M37.3406 47.8156L63.5266 77.2008C63.6475 77.3365 63.6747 77.4363 63.6839 77.506C63.6957 77.5962 63.6836 77.7172 63.6261 77.8455C63.5686 77.9737 63.4863 78.0632 63.4112 78.1144C63.353 78.154 63.2603 78.2 63.0786 78.2H44.093H40.493H31.493H10.7067C10.525 78.2 10.4324 78.154 10.3742 78.1144C10.2991 78.0632 10.2167 77.9737 10.1592 77.8455C10.1017 77.7172 10.0897 77.5962 10.1015 77.506C10.1106 77.4363 10.1379 77.3365 10.2588 77.2008L36.4447 47.8156C36.6833 47.5479 37.102 47.5479 37.3406 47.8156Z" stroke="#020724" stroke-width="8.4"/>
<path d="M42.6194 82.7463L37.115 73.5722C36.7421 72.9507 35.8415 72.9507 35.4686 73.5722L29.9641 82.7463C29.5802 83.3861 30.0411 84.2002 30.7873 84.2002H35.238H36.9944H37.697H41.7963C42.5425 84.2002 43.0034 83.3861 42.6194 82.7463Z" fill="black"/>
<circle cx="35.6914" cy="68" r="4.5" fill="#020724"/>
</svg>
