<svg width="60" height="60" viewBox="0 0 60 60" fill="none" xmlns="http://www.w3.org/2000/svg">
<path fill-rule="evenodd" clip-rule="evenodd" d="M55 40.0002V30.0002C55 22.9292 55 19.3936 52.8032 17.1969C50.74 15.1337 47.4958 15.0084 41.25 15.0007V54.9997C47.4958 54.9922 50.74 54.8667 52.8032 52.8035C55 50.607 55 47.0712 55 40.0002ZM47.5 27.5C48.8807 27.5 50 28.6192 50 30C50 31.3807 48.8807 32.5 47.5 32.5C46.1193 32.5 45 31.3807 45 30C45 28.6192 46.1193 27.5 47.5 27.5ZM47.5 37.5C48.8807 37.5 50 38.6192 50 40C50 41.3807 48.8807 42.5 47.5 42.5C46.1193 42.5 45 41.3807 45 40C45 38.6192 46.1193 37.5 47.5 37.5Z" fill="#020724"/>
<path d="M38.9235 8.72028L33.5407 15.0003H37.5V55.0002H20C12.9289 55.0002 9.3934 55.0003 7.1967 52.8035C5 50.607 5 47.0713 5 40.0003V30.0003C5 22.9292 5 19.3937 7.1967 17.197C9.3934 15.0003 12.9289 15.0003 20 15.0003H26.4593L21.0764 8.72028C20.4025 7.93403 20.4935 6.75035 21.2797 6.07643C22.066 5.40253 23.2497 5.49358 23.9236 6.2798L30 13.3689L36.0763 6.2798C36.7502 5.49358 37.934 5.4025 38.7202 6.07643C39.5065 6.75035 39.5975 7.93403 38.9235 8.72028Z" fill="#020724"/>
</svg>
