<svg width="37" height="36" viewBox="0 0 37 36" fill="none" xmlns="http://www.w3.org/2000/svg">
<path fill-rule="evenodd" clip-rule="evenodd" d="M25.6322 10.5945C25.6322 15.387 22.7372 19.5 18.8822 19.5C15.0242 19.5 12.1322 15.387 12.1322 10.593C12.1322 5.802 14.6222 3 18.8822 3C23.1422 3 25.6322 5.8005 25.6322 10.5945ZM7.03516 30.213C7.61266 30.9 10.0997 33 18.8822 33C27.6647 33 30.1502 30.9 30.7292 30.2145C30.7829 30.1486 30.8225 30.0725 30.8458 29.9907C30.869 29.9089 30.8752 29.8233 30.8642 29.739C30.7322 28.416 29.5412 22.5 18.8822 22.5C8.22316 22.5 7.03216 28.416 6.89866 29.739C6.8878 29.8234 6.8943 29.9091 6.91778 29.9909C6.94125 30.0726 6.9812 30.1472 7.03516 30.213Z" fill="#020724"/>
</svg>
