<svg width="24" height="30" viewBox="0 0 24 30" fill="none" xmlns="http://www.w3.org/2000/svg">
<path fill-rule="evenodd" clip-rule="evenodd" d="M18.7503 7.5945C18.7503 12.387 15.8553 16.5 12.0003 16.5C8.14233 16.5 5.25033 12.387 5.25033 7.593C5.25033 2.802 7.74033 0 12.0003 0C16.2603 0 18.7503 2.8005 18.7503 7.5945ZM0.153327 27.213C0.730827 27.9 3.21783 30 12.0003 30C20.7828 30 23.2683 27.9 23.8473 27.2145C23.901 27.1486 23.9407 27.0725 23.9639 26.9907C23.9871 26.9089 23.9934 26.8233 23.9823 26.739C23.8503 25.416 22.6593 19.5 12.0003 19.5C1.34133 19.5 0.150327 25.416 0.016827 26.739C0.00596385 26.8234 0.0124685 26.9091 0.0359422 26.9909C0.0594158 27.0726 0.0993627 27.1472 0.153327 27.213Z" fill="white"/>
</svg>
