<svg width="32" height="32" viewBox="0 0 32 32" fill="none" xmlns="http://www.w3.org/2000/svg">
<path d="M3.9934 12.8665L3.99341 12.8663C3.76762 12.8529 3.56602 12.6741 3.56602 12.433L3.56602 9.99995L3.56602 9.99984H3.66602L3.9934 12.8665ZM3.9934 12.8665H3.99935M3.9934 12.8665H3.99935M3.99935 12.8665H6.16602C6.49739 12.8665 6.76602 12.5979 6.76602 12.2665V10.0335C6.77119 9.16862 7.11704 8.34065 7.7286 7.72909C8.34017 7.11753 9.16814 6.77167 10.033 6.76651H12.2527C12.5841 6.76651 12.8527 6.49788 12.8527 6.16651V3.99984H12.8529M3.99935 12.8665L12.8529 3.99984M12.8529 3.99984L12.8525 3.9939M12.8529 3.99984L12.8525 3.9939M12.8525 3.9939C12.8391 3.76811 12.6603 3.56651 12.4192 3.56651H9.99941L12.8525 3.9939ZM19.106 3.99389L19.1062 3.9939C19.1196 3.76811 19.2984 3.56651 19.5395 3.56651L21.9992 3.56651L21.9994 3.56651V3.66651C22.8313 3.66563 23.6553 3.82885 24.4241 4.14682C25.1928 4.46479 25.8914 4.93126 26.4797 5.51954C27.0679 6.10782 27.5344 6.80635 27.8524 7.57514C28.1703 8.34393 28.3336 9.16789 28.3327 9.99984L19.106 3.99389ZM19.106 3.99389V3.99984V6.16651C19.106 6.49788 19.3747 6.76651 19.706 6.76651H21.9987M19.106 3.99389L21.9987 6.76651M25.2327 10.0332L25.2327 10.0336L25.2327 12.2532C25.2327 12.5845 25.5013 12.8532 25.8327 12.8532H27.9994V12.8534L28.0053 12.853C28.2311 12.8396 28.4327 12.6608 28.4327 12.4196V9.99995L21.9994 6.66651C22.8854 6.67874 23.7312 7.03841 24.3546 7.66809C24.978 8.29776 25.3293 9.14708 25.3327 10.0332H25.2327ZM25.2327 10.0332C25.2293 9.17344 24.8884 8.3494 24.2835 7.73844C23.6787 7.12756 22.8582 6.77855 21.9987 6.76651M25.2327 10.0332L21.9987 6.76651M3.66602 19.1198C3.69396 19.1198 3.71923 19.1313 3.73738 19.1498C3.82271 19.1528 3.90815 19.1518 3.99341 19.1467L3.99935 19.1463V19.1465H6.16602C6.49739 19.1465 6.76602 19.4151 6.76602 19.7465V21.9991C6.77806 22.8587 7.12707 23.6792 7.73796 24.284C8.34891 24.8889 9.17295 25.2298 10.0327 25.2332C10.0328 25.2332 10.0329 25.2332 10.0331 25.2332M3.66602 19.1198L12.766 25.8332C12.766 25.557 12.5422 25.3332 12.266 25.3332H10.0327L10.0331 25.2332M3.66602 19.1198C3.61079 19.1198 3.56602 19.1646 3.56602 19.2198V21.9998L3.66602 19.1198ZM10.0331 25.2332L12.266 25.2332C12.5974 25.2332 12.866 25.5018 12.866 25.8332V27.9998V28.0058L12.8658 28.0058C12.8524 28.2316 12.6736 28.4332 12.4325 28.4332H9.99946M10.0331 25.2332L9.99946 28.4332M9.99946 28.4332H9.99935V28.3332L9.99946 28.4332ZM15.9992 10.7665H15.9991C14.792 10.7695 13.6232 11.1907 12.6918 11.9584C11.7603 12.7262 11.1237 13.7931 10.8904 14.9774C10.657 16.1617 10.8413 17.3903 11.4119 18.454C11.9825 19.5178 12.9042 20.3508 14.0199 20.8115C15.1357 21.2721 16.3766 21.3318 17.5314 20.9804C18.6863 20.629 19.6836 19.8883 20.3537 18.8843C21.0238 17.8802 21.3252 16.675 21.2067 15.4738C21.0881 14.2725 20.5569 13.1494 19.7034 12.2958L19.7033 12.2957C19.2166 11.81 18.639 11.4249 18.0034 11.1625C17.3679 10.9001 16.6868 10.7656 15.9992 10.7665ZM24.2927 21.4532C23.731 21.4532 23.1819 21.6197 22.7149 21.9318C22.2478 22.2439 21.8838 22.6874 21.6689 23.2064C21.4539 23.7253 21.3977 24.2963 21.5073 24.8472C21.6168 25.3981 21.8873 25.9042 22.2845 26.3014C22.6817 26.6985 23.1877 26.969 23.7386 27.0786C24.2895 27.1882 24.8606 27.1319 25.3795 26.917C25.8984 26.702 26.342 26.338 26.6541 25.871C26.9661 25.404 27.1327 24.8549 27.1327 24.2932C27.1327 23.54 26.8335 22.8176 26.3009 22.285C25.7683 21.7524 25.0459 21.4532 24.2927 21.4532Z" fill="#020724" stroke="#020724" stroke-width="0.2" stroke-linecap="round" stroke-linejoin="round"/>
</svg>
