<svg width="24" height="24" viewBox="0 0 24 24" fill="none" xmlns="http://www.w3.org/2000/svg">
<path fill-rule="evenodd" clip-rule="evenodd" d="M5.32351 8.87479V11.7926C5.32351 15.462 8.31033 18.4488 11.9797 18.4488C15.6491 18.4488 18.6359 15.462 18.6359 11.7926V8.87479H19.8461V11.7926C19.8461 15.9265 16.6407 19.326 12.5849 19.636L12.5848 22.7898H15.6104V24H8.34906V22.7898H11.3746L11.3745 19.636C7.31876 19.326 4.11328 15.9264 4.11328 11.7926V8.87479H5.32351ZM11.9797 0C14.9823 0 17.4257 2.44344 17.4257 5.446V11.4971C17.4257 14.4997 14.9823 16.9431 11.9797 16.9431C8.97716 16.9431 6.53372 14.4997 6.53372 11.4971V5.446C6.53372 2.44344 8.97716 0 11.9797 0Z" fill="#020724"/>
<path d="M10.1326 7.02169L8.88556 9.00304C8.59751 9.46073 8.11678 9.7624 7.57936 9.82272C6.67997 9.92368 6 10.6842 6 11.5893V12V13.3657C6 13.4542 6.01894 13.5417 6.05556 13.6222L7.07884 15.8735C7.11631 15.9559 7.23967 15.9292 7.23967 15.8386C7.23967 15.7638 7.33006 15.7261 7.38318 15.7789L8.86553 17.2509C8.97027 17.355 9.09774 17.4332 9.23788 17.4796L10.3092 17.8342C10.6374 17.9429 10.9882 17.9646 11.3273 17.8972L13.5922 17.4474C13.7205 17.4219 13.851 17.4091 13.9818 17.4091H14.1509C14.6789 17.4091 15.1855 17.2003 15.5601 16.8282L16.1653 16.2273L17.3879 15.0132C17.7492 14.6543 17.9601 14.1712 17.9774 13.6622L18 13V12L17.9504 9.5V9.21584C17.9504 8.78081 17.8086 8.35764 17.5464 8.01049L17.1476 7.48248C16.6279 6.79437 15.6206 6.72272 15.0087 7.33033C14.3741 7.96052 13.3224 7.85624 12.8239 7.1137L12.7364 6.9833C12.1101 6.0504 10.7311 6.07074 10.1326 7.02169Z" fill="#D8DBE2" fill-opacity="0.8"/>
</svg>
