<svg width="50" height="50" viewBox="0 0 50 50" fill="none" xmlns="http://www.w3.org/2000/svg">
<path d="M22.5 50H0L4.3725 39.0725C4.55784 38.6086 4.8779 38.2109 5.29142 37.9306C5.70494 37.6503 6.19294 37.5003 6.6925 37.5H15.8075C16.3071 37.5003 16.7951 37.6503 17.2086 37.9306C17.6221 38.2109 17.9422 38.6086 18.1275 39.0725L22.5 50ZM43.3075 37.5H34.1925C33.6929 37.5003 33.2049 37.6503 32.7914 37.9306C32.3779 38.2109 32.0578 38.6086 31.8725 39.0725L27.5 50H50L45.6275 39.0725C45.4422 38.6086 45.1221 38.2109 44.7086 37.9306C44.2951 37.6503 43.8071 37.5003 43.3075 37.5ZM18.1225 21.5725L13.75 32.5H36.25L31.8775 21.5725C31.6922 21.1086 31.3721 20.7109 30.9586 20.4306C30.5451 20.1503 30.0571 20.0003 29.5575 20H20.4425C19.9429 20.0003 19.4549 20.1503 19.0414 20.4306C18.6279 20.7109 18.3078 21.1086 18.1225 21.5725ZM27.5 7.5V2.5C27.5 1.83696 27.2366 1.20107 26.7678 0.732233C26.2989 0.263392 25.663 0 25 0C24.337 0 23.7011 0.263392 23.2322 0.732233C22.7634 1.20107 22.5 1.83696 22.5 2.5V7.5C22.5 8.16304 22.7634 8.79893 23.2322 9.26777C23.7011 9.73661 24.337 10 25 10C25.663 10 26.2989 9.73661 26.7678 9.26777C27.2366 8.79893 27.5 8.16304 27.5 7.5ZM39.1425 14.3925L42.6775 10.8575C42.9163 10.6269 43.1067 10.351 43.2378 10.046C43.3688 9.741 43.4377 9.41295 43.4406 9.081C43.4435 8.74905 43.3803 8.41986 43.2546 8.11262C43.1288 7.80537 42.9432 7.52624 42.7085 7.29151C42.4738 7.05678 42.1946 6.87115 41.8874 6.74545C41.5801 6.61974 41.2509 6.55649 40.919 6.55937C40.5871 6.56226 40.259 6.63122 39.954 6.76225C39.649 6.89327 39.3731 7.08372 39.1425 7.3225L35.6075 10.8575C35.3687 11.0881 35.1783 11.364 35.0472 11.669C34.9162 11.974 34.8473 12.302 34.8444 12.634C34.8415 12.9659 34.9047 13.2951 35.0304 13.6024C35.1561 13.9096 35.3418 14.1888 35.5765 14.4235C35.8112 14.6582 36.0904 14.8439 36.3976 14.9696C36.7049 15.0953 37.0341 15.1585 37.366 15.1556C37.698 15.1527 38.026 15.0838 38.331 14.9528C38.636 14.8217 38.9119 14.6313 39.1425 14.3925ZM10.8575 7.3225C10.386 6.8671 9.75449 6.61512 9.099 6.62081C8.44351 6.62651 7.81647 6.88943 7.35295 7.35295C6.88943 7.81647 6.62651 8.44351 6.62081 9.099C6.61512 9.75449 6.8671 10.386 7.3225 10.8575L10.8575 14.3925C11.329 14.8479 11.9605 15.0999 12.616 15.0942C13.2715 15.0885 13.8985 14.8256 14.362 14.362C14.8256 13.8985 15.0885 13.2715 15.0942 12.616C15.0999 11.9605 14.8479 11.329 14.3925 10.8575L10.8575 7.3225ZM0 25C0 25.663 0.263392 26.2989 0.732233 26.7678C1.20107 27.2366 1.83696 27.5 2.5 27.5H7.5C8.16304 27.5 8.79893 27.2366 9.26777 26.7678C9.73661 26.2989 10 25.663 10 25C10 24.337 9.26777 23.2322 9.26777 23.2322C9.26777 23.2322 8.16304 22.5 7.5 22.5H2.5C1.83696 22.5 1.20107 22.7634 0.732233 23.2322C0.263392 23.7011 0 24.337 0 25ZM47.5 22.5H42.5C41.837 22.5 41.2011 22.7634 40.7322 23.2322C40.2634 23.7011 40 24.337 40 25C40 25.663 40.2634 26.2989 40.7322 26.7678C41.2011 27.2366 41.837 27.5 42.5 27.5H47.5C48.163 27.5 48.7989 27.2366 49.2678 26.7678C49.7366 26.2989 50 25.663 50 25C50 24.337 49.7366 23.7011 49.2678 23.2322C48.7989 22.7634 48.163 22.5 47.5 22.5Z" fill="#020724"/>
</svg>
