<svg width="71" height="70" viewBox="0 0 71 70" fill="none" xmlns="http://www.w3.org/2000/svg">
<path d="M34.4429 18.1754C34.5605 21.7082 34.8777 52.5683 34.5195 54.7148C34.1968 56.648 32.9609 60.1398 30.6011 60.5062C28.2413 60.8726 26.7101 59.098 26.0019 58.8656C25.2937 58.6332 23.3359 59.8308 21.7882 58.7726C20.2406 57.7144 20.5796 54.9445 20.1476 54.4742C19.7156 54.0039 17.3202 54.559 16.1718 52.973C15.0234 51.3871 16.0214 49.6918 15.6577 49.2324C15.2941 48.773 11.7558 48.3574 11.2554 44.6523C10.6867 40.4004 14.0964 39.5691 14.0773 38.9074C14.0581 38.2457 11.2499 34.6281 12.6718 30.182C14.0937 25.7359 17.8343 25.2601 18.0531 24.8609C18.2718 24.4617 16.5601 22.0117 18.8132 18.4789C21.0663 14.9461 24.3175 15.9004 24.7796 15.5859C25.2417 15.2715 24.7003 13.8797 26.2671 11.9082C27.7136 10.0871 30.4808 9.63864 32.4796 10.7898C34.2925 11.8453 34.3253 14.6425 34.4429 18.1754Z" fill="#020724"/>
<path d="M29.9534 62.7456C27.8808 62.7456 26.3769 61.7147 25.5155 61.1241L25.4937 61.1104L25.3925 61.1323C24.3343 61.3757 22.3628 61.8269 20.5554 60.5854C18.9312 59.4753 18.5183 57.6433 18.3241 56.3417C17.173 56.194 15.5269 55.8085 14.4085 54.2636C13.6511 53.1954 13.308 51.8883 13.4433 50.5858C9.61515 48.721 9.23781 46.0058 9.09562 44.9476C8.6089 41.371 10.2495 39.4159 11.4581 38.3714C10.6378 36.5886 9.38 33.3019 10.5886 29.5175C10.9685 28.2459 11.6068 27.0665 12.4636 26.053C13.3204 25.0395 14.3772 24.2138 15.5679 23.6276C15.3136 22.1647 15.2945 19.928 16.9679 17.303C18.882 14.3198 21.4441 13.6827 23.0519 13.5378C23.327 12.446 23.8396 11.4283 24.553 10.5573C26.6448 7.92685 30.6042 7.19951 33.5765 8.9167C36.3819 10.5218 36.4995 14.0437 36.6198 17.7733V18.1069C36.7073 20.7265 37.0902 52.5601 36.6691 55.0784C36.1413 58.253 34.3202 62.1468 30.9269 62.6745C30.6047 62.7229 30.2792 62.7467 29.9534 62.7456ZM25.7917 56.6644C26.0836 56.6622 26.374 56.7046 26.653 56.7901C27.1325 56.9615 27.5826 57.2059 27.9874 57.5147C28.8077 58.0808 29.4585 58.4718 30.2679 58.3351C31.0089 58.2202 32.048 56.2433 32.3652 54.3456C32.6714 52.1089 32.3898 22.1866 32.2585 18.2382V17.9019C32.1874 15.7581 32.1027 13.0894 31.3999 12.6847C30.3062 12.053 28.7421 12.321 27.9902 13.2671C27.5353 13.7994 27.2597 14.4614 27.2027 15.1593C27.1234 15.7226 26.9784 16.7698 25.9831 17.4233C25.3515 17.839 24.7034 17.8499 24.1319 17.8608C23.082 17.88 21.7749 17.9073 20.6593 19.6546C19.4753 21.5112 19.839 22.7964 20.0687 23.6468C20.2245 24.2073 20.4597 25.055 19.962 25.9382C19.5437 26.6792 18.8902 26.9499 18.3214 27.1878C17.2933 27.6144 15.587 28.328 14.7667 30.8491C13.9464 33.455 15.0402 35.7218 15.6991 37.0753C16.0245 37.7425 16.2597 38.2265 16.2761 38.8472C16.3116 40.146 15.3737 40.8651 14.8132 41.3081C13.9929 41.9479 13.1945 42.5495 13.446 44.3843C13.6456 45.8636 14.5999 46.3694 15.8277 46.878C16.3909 47.1104 16.9706 47.3511 17.4136 47.9226C18.1054 48.8194 17.9605 49.8147 17.8784 50.4737C17.7964 51.1327 17.7691 51.4417 17.9687 51.7179C18.1355 51.9476 18.8628 52.0214 19.3359 52.0679C20.1097 52.1444 21.0749 52.2401 21.7968 53.0413C22.3874 53.7003 22.4941 54.4823 22.6171 55.3108C22.6718 55.7155 22.8167 56.7874 23.0519 56.9952C23.2761 57.1483 23.9734 56.9952 24.4355 56.8804C24.878 56.7578 25.333 56.6854 25.7917 56.6644Z" fill="#020724"/>
<path d="M36.8543 17.4508C36.6711 21.0055 36.3403 52.0188 36.6629 54.1817C36.9528 56.1286 37.4832 58.3106 40.3789 59.7161C42.5664 60.777 44.65 59.0516 45.3364 58.8274C46.0227 58.6032 47.6633 58.9012 49.252 57.8622C50.8407 56.8231 51.5325 54.4989 51.9645 54.2555C52.3965 54.0122 54.4883 54.2227 55.6832 52.645C56.8782 51.0672 55.902 49.4211 56.0387 48.9071C56.1754 48.393 59.2981 47.786 59.8832 44.4145C60.6051 40.2665 57.2254 39.1481 57.1325 38.5875C57.0395 38.027 59.67 36.061 58.8524 32.1481C57.9582 27.8743 55.1911 27.3657 54.9805 26.8379C54.77 26.3102 56.3914 24.9594 55.5493 22.5176C54.7071 20.0758 52.5414 20.1305 52.2243 19.6028C51.9071 19.0751 52.6809 17.7461 51.3547 16.1055C49.9739 14.3965 47.1711 15.2606 46.7063 15.0118C46.2414 14.7629 46.2524 13.0567 44.6473 11.3559C43.3895 10.0243 40.6469 9.33521 38.8258 10.8829C37.2098 12.2501 37.0485 13.9016 36.8543 17.4508Z" fill="#020724"/>
<path d="M41.8448 62.2454C41.0037 62.2466 40.1738 62.0538 39.4194 61.6821C35.2659 59.6586 34.7463 56.175 34.4975 54.5016C34.1256 52.0161 34.4975 20.4313 34.667 17.3332C34.842 13.9426 34.9815 11.2657 37.4014 9.20669C40.1358 6.88794 44.1717 7.6645 46.2307 9.8438C47.0416 10.7034 47.6753 11.7143 48.0955 12.8188C49.4791 12.7832 51.6038 12.9391 53.0502 14.7329C53.8759 15.7181 54.3357 16.9584 54.3518 18.2438C55.1159 18.572 55.8018 19.0585 56.3641 19.6713C56.9264 20.284 57.3524 21.009 57.6139 21.7985C58.1082 23.1664 58.1014 24.6652 57.5948 26.0286C58.7541 26.9008 60.3291 28.5223 60.9881 31.6942C61.4747 33.9058 61.0877 36.2198 59.9081 38.1528C61.103 39.2793 62.6424 41.3438 62.0327 44.7864C61.5241 47.7012 59.6373 49.186 58.3987 49.9489C58.5145 50.649 58.4874 51.3652 58.3192 52.0546C58.151 52.7439 57.845 53.3922 57.4198 53.9602C56.1538 55.6336 54.36 56.0493 53.2745 56.2215C52.7604 57.1786 51.9073 58.7262 50.4416 59.686C48.8557 60.7223 47.2807 60.829 46.3401 60.8918L46.001 60.9165L45.785 61.0313C45.0385 61.4524 43.5838 62.2454 41.8448 62.2454ZM41.3225 12.179C40.9256 12.1647 40.537 12.2949 40.2288 12.5454C39.3893 13.2563 39.2116 14.0083 39.0256 17.5629C38.8397 21.1176 38.5471 51.6797 38.826 53.8672C39.0748 55.5434 39.403 56.8094 41.3362 57.75C41.9979 58.0727 42.7963 57.6926 43.6959 57.2032C44.002 57.023 44.3242 56.872 44.6584 56.752C45.1116 56.6227 45.5792 56.5511 46.0502 56.5387C46.7256 56.4922 47.4174 56.4457 48.0518 56.0356C48.6178 55.6665 49.1209 54.7258 49.4573 54.1051C49.8483 53.3778 50.1846 52.7379 50.8928 52.3524C51.3312 52.1305 51.8085 51.9958 52.2983 51.9559C53.0366 51.852 53.6272 51.7399 53.9389 51.3297C54.1495 51.0563 54.133 50.7829 53.9799 50.0692C53.8186 49.5065 53.8007 48.9124 53.928 48.3411C54.2014 47.3157 54.9998 46.8672 55.6397 46.509C56.6842 45.9211 57.5018 45.3661 57.7315 44.0481C58.0514 42.2024 57.1846 41.5215 56.337 40.8653C55.8311 40.4715 55.1393 39.9301 54.9698 38.9512C54.8002 37.9723 55.3116 37.1903 55.719 36.5915C56.3069 35.7301 57.1135 34.5489 56.7061 32.602C56.2248 30.2969 55.153 29.6297 54.3737 29.143C53.876 28.834 53.258 28.4485 52.9436 27.6473C52.5225 26.5836 52.9682 25.6622 53.2334 25.1098C53.5233 24.5082 53.753 24.0325 53.4768 23.234C53.2334 22.5286 52.8424 22.3399 52.1096 22.0446C51.5627 21.8231 50.808 21.5168 50.335 20.7239C50.004 20.1103 49.873 19.4085 49.9604 18.7168C49.9905 18.1918 50.0041 17.9293 49.6459 17.4864C49.3725 17.1336 48.2787 17.1938 47.6936 17.2129C46.9936 17.2512 46.3264 17.2895 45.6538 16.9204C44.7377 16.4227 44.437 15.575 44.1963 14.8915C43.9774 14.1349 43.5905 13.4376 43.0643 12.8516C42.5874 12.4206 41.968 12.181 41.3252 12.179H41.3225Z" fill="#020724"/>
<path d="M34.4429 18.1754C34.5605 21.7082 34.8777 52.5683 34.5195 54.7148C34.1968 56.648 32.9609 60.1398 30.6011 60.5062C28.2413 60.8726 26.7101 59.098 26.0019 58.8656C25.2937 58.6332 23.3359 59.8308 21.7882 58.7726C20.2406 57.7144 20.5796 54.9445 20.1476 54.4742C19.7156 54.0039 17.3202 54.559 16.1718 52.973C15.0234 51.3871 16.0214 49.6918 15.6577 49.2324C15.2941 48.773 11.7558 48.3574 11.2554 44.6523C10.6867 40.4004 14.0964 39.5691 14.0773 38.9074C14.0581 38.2457 11.2499 34.6281 12.6718 30.182C14.0937 25.7359 17.8343 25.2601 18.0531 24.8609C18.2718 24.4617 16.5601 22.0117 18.8132 18.4789C21.0663 14.9461 24.3175 15.9004 24.7796 15.5859C25.2417 15.2715 24.7003 13.8797 26.2671 11.9082C27.7136 10.0871 30.4808 9.63864 32.4796 10.7898C34.2925 11.8453 34.3253 14.6425 34.4429 18.1754Z" fill="white"/>
<path d="M36.8524 17.4507C36.6692 21.0054 36.3383 52.0187 36.661 54.1816C36.9508 56.1284 37.4813 58.3105 40.377 59.7159C42.5645 60.7769 44.6481 59.0515 45.3344 58.8273C46.0207 58.6031 47.6614 58.9011 49.25 57.862C50.8387 56.823 51.5305 54.4988 51.9625 54.2554C52.3946 54.012 54.4864 54.2226 55.6813 52.6448C56.8762 51.0671 55.9 49.421 56.0368 48.907C56.1735 48.3929 59.2961 47.7859 59.8813 44.4144C60.6032 40.2663 57.2235 39.148 57.1305 38.5874C57.0375 38.0269 59.668 36.0609 58.8504 32.148C57.9563 27.8741 55.1891 27.3656 54.9786 26.8378C54.768 26.3101 56.3895 24.9593 55.5473 22.5175C54.7051 20.0757 52.5395 20.1304 52.2223 19.6027C51.9051 19.0749 52.6789 17.746 51.3528 16.1054C49.9719 14.3964 47.1692 15.2605 46.7043 15.0116C46.2395 14.7628 46.2504 13.0566 44.6454 11.3558C43.3875 10.0241 40.645 9.33509 38.8239 10.8827C37.2079 12.2499 37.0465 13.9015 36.8524 17.4507Z" fill="white"/>
<path d="M42.2852 20.7811C41.0547 19.9197 28.1293 33.042 28.545 34.1166C28.9606 35.1912 33.1743 35.1283 33.7403 35.7818C34.3063 36.4354 29.1629 47.9416 30.1172 48.6881C30.8336 49.235 43.7426 36.594 43.5512 35.4592C43.3598 34.3244 39.8981 34.5377 39.1407 33.8186C38.3832 33.0994 43.1657 21.4018 42.2852 20.7811Z" fill="#DAA49A"/>
<path d="M3.72785 40.2418C4.32121 40.2418 7.96339 39.2711 8.55949 38.9047C9.15558 38.5383 8.45011 36.4683 7.99347 36.3754C7.53683 36.2824 3.68683 37.3953 3.16183 37.7125C2.63683 38.0297 3.13996 40.25 3.72785 40.2418Z" fill="#020724"/>
<path d="M2.96519 26.7804C2.50035 26.3046 3.12379 24.4726 3.83199 24.4644C4.54019 24.4562 7.91988 25.5828 8.33551 25.9765C8.75113 26.3703 8.26168 28.2105 7.46871 28.2925C6.67574 28.3746 3.47652 27.3027 2.96519 26.7804Z" fill="#020724"/>
<path d="M10.1145 18.3805C9.81649 17.7845 10.9731 16.2341 11.6485 16.4419C12.3239 16.6497 13.8059 17.7735 14.052 18.2684C14.2981 18.7634 13.2973 20.3712 12.5181 20.2071C11.7388 20.043 10.4427 19.0313 10.1145 18.3805Z" fill="#020724"/>
<path d="M7.24143 53.7331C6.57697 53.7003 5.78947 51.9339 6.3008 51.4445C6.81213 50.955 8.4883 50.2222 9.07072 50.2413C9.65315 50.2605 10.5364 51.9284 10.0114 52.53C9.48635 53.1316 7.96057 53.7659 7.24143 53.7331Z" fill="#020724"/>
<path d="M66.7751 28.5441C66.3267 28.4976 63.8275 29.0554 63.3517 29.3644C62.8759 29.6733 63.5923 31.7323 63.9286 31.8636C64.265 31.9948 66.9364 31.3167 67.3521 31.0433C67.7677 30.7698 67.2236 28.5905 66.7751 28.5441Z" fill="#020724"/>
<path d="M60.7985 24.1854C60.134 24.1608 59.3274 22.4026 59.836 21.9077C60.3446 21.4127 63.5712 19.9061 64.1399 19.9225C64.7087 19.9389 65.663 21.5166 65.1434 22.11C64.6239 22.7034 61.5286 24.21 60.7985 24.1854Z" fill="#020724"/>
<path d="M69.0391 38.8281C69.6024 39.1808 69.4247 41.1086 68.7384 41.289C68.052 41.4695 64.5028 41.1605 64.0161 40.8625C63.5294 40.5644 63.5649 38.675 64.3169 38.4015C65.0688 38.1281 68.4212 38.4371 69.0391 38.8281Z" fill="#020724"/>
<path d="M65.7908 48.5707C66.2611 49.041 65.6486 50.8785 64.9404 50.8922C64.2322 50.9059 62.6107 50.2961 62.206 49.8969C61.8013 49.4977 62.2635 47.6629 63.0564 47.5754C63.8494 47.4879 65.274 48.0539 65.7908 48.5707Z" fill="#020724"/>
</svg>
