<svg width="53" height="55" viewBox="0 0 53 55" fill="none" xmlns="http://www.w3.org/2000/svg">
<path d="M13.075 0H8.325C2.875 0 0 2.875 0 8.325V13.075C0 18.525 2.875 21.4 8.325 21.4H13.075C18.525 21.4 21.4 18.525 21.4 13.075V8.325C21.4 2.875 18.525 0 13.075 0Z" fill="#020724"/>
<path d="M44.1 33H39.35C33.875 33 31 35.875 31 41.325V46.075C31 51.55 33.875 54.425 39.325 54.425H44.075C49.525 54.425 52.4 51.55 52.4 46.1V41.35C52.425 35.875 49.55 33 44.1 33Z" fill="#020724"/>
<path d="M41.725 22.45C47.6482 22.45 52.45 17.6482 52.45 11.725C52.45 5.80175 47.6482 1 41.725 1C35.8018 1 31 5.80175 31 11.725C31 17.6482 35.8018 22.45 41.725 22.45Z" fill="#020724"/>
<path d="M10.725 54.45C16.6482 54.45 21.45 49.6483 21.45 43.725C21.45 37.8018 16.6482 33 10.725 33C4.80175 33 0 37.8018 0 43.725C0 49.6483 4.80175 54.45 10.725 54.45Z" fill="#020724"/>
</svg>
