<svg width="60" height="60" viewBox="0 0 60 60" fill="none" xmlns="http://www.w3.org/2000/svg">
<path d="M44.5781 46.3828C44.6016 46.3828 44.625 46.4063 44.625 46.4063C44.5781 46.3828 44.5312 46.3359 44.5078 46.3125C44.2734 46.125 44.0156 45.9141 43.7578 45.7266C43.6641 45.6563 43.5937 45.6094 43.5 45.5391C43.1484 45.3047 42.7734 45.0703 42.375 44.8359C42.375 44.8359 42.375 44.8359 42.3516 44.8359C41.4844 44.3672 40.5234 43.9453 39.4688 43.5703C38.0859 43.1016 36.5625 42.7266 34.9453 42.4688V49.7578C34.9453 51.2813 33.7031 52.5 32.2031 52.5C31.4062 52.5 30.7031 52.1484 30.2109 51.6094C29.7188 52.1484 28.9922 52.5 28.1953 52.5C26.6719 52.5 25.4531 51.2813 25.4531 49.7578V42.4688C18.5391 43.5234 13.5 46.8047 13.5 50.6953C13.5 55.4297 20.9766 59.2734 30.2109 59.2734C39.4453 59.2734 46.9219 55.4297 46.9219 50.6953C46.9219 49.1484 46.0547 47.6719 44.5781 46.3828Z" fill="#020724"/>
<path d="M34.8047 24.3281L39.2344 19.875L33.0234 0.75H26.9766L21.0938 19.8516L25.5234 24.3281H34.8047ZM30.3516 17.2969C32.0156 17.2969 33.375 18.6562 33.375 20.3203C33.375 22.0078 32.0156 23.3438 30.3516 23.3438C28.6875 23.3438 27.3281 22.0078 27.3281 20.3203C27.3281 18.6562 28.6875 17.2969 30.3516 17.2969Z" fill="#020724"/>
<path d="M46.5469 47.0391L40.0078 22.7344L33.9844 28.9453V41.3906L35.0859 41.5547C40.4297 42.3516 44.5547 44.3906 46.5469 47.0391Z" fill="#020724"/>
<path d="M26.3906 41.3906V49.8047C26.3906 50.7656 27.1641 51.5391 28.125 51.5625C29.0391 51.5156 29.7656 50.7656 29.7656 49.8516L29.7422 41.1562C28.5938 41.1797 27.4688 41.25 26.3906 41.3906Z" fill="#020724"/>
<path d="M26.3203 41.3906V28.8984L20.3438 22.7578L14.2734 46.5234C16.4062 44.1328 20.2969 42.3047 25.2891 41.5547L26.3203 41.3906Z" fill="#020724"/>
<path d="M30.5391 41.1094V35.8594H29.7656V41.1094C29.9766 41.1094 30.1641 41.1094 30.375 41.1094C30.4219 41.1094 30.4922 41.1094 30.5391 41.1094Z" fill="#020724"/>
<path d="M30.5391 49.8516C30.5625 50.7891 31.3359 51.5625 32.2734 51.5625C33.2344 51.5625 33.9844 50.7891 33.9844 49.8516L33.9609 41.3437C32.8594 41.2031 31.7109 41.1328 30.5156 41.1328L30.5391 49.8516Z" fill="#020724"/>
<path d="M18.9366 21.3047L20.3428 22.7578L21.0928 19.8516L20.7647 19.5C20.7647 19.5 20.7647 19.5 20.7647 19.4766C20.2725 18.9844 19.4522 18.9844 18.96 19.4766C18.4444 19.9922 18.4444 20.8125 18.9366 21.3047Z" fill="#020724"/>
<path d="M41.3906 21.3281C41.9063 20.8125 41.9063 20.0156 41.3906 19.5234C40.8984 19.0313 40.0781 19.0313 39.5859 19.5234L39.2344 19.875L40.0078 22.7578L41.3906 21.3281Z" fill="#020724"/>
</svg>
