<svg width="54" height="60" viewBox="0 0 54 60" fill="none" xmlns="http://www.w3.org/2000/svg">
<g clip-path="url(#clip0_1489_1351)">
<path d="M5.77697 24.3369H3.11521C2.64591 24.3369 2.26562 24.7665 2.26562 25.2964C2.26562 25.8264 2.64591 26.256 3.11521 26.256H5.77697C6.24628 26.256 6.62656 25.8264 6.62656 25.2964C6.62656 24.7665 6.24628 24.3369 5.77697 24.3369Z" fill="#020724"/>
<path d="M10.3081 35.2109H4.24803C3.77872 35.2109 3.39844 35.6406 3.39844 36.1705C3.39844 36.7004 3.77872 37.13 4.24803 37.13H10.3082C10.7775 37.13 11.1578 36.7004 11.1578 36.1705C11.1578 35.6406 10.7775 35.2109 10.3081 35.2109Z" fill="#020724"/>
<path d="M8.04255 29.4541H0.849588C0.380281 29.4541 0 29.8837 0 30.4136C0 30.9436 0.380281 31.3732 0.849588 31.3732H8.04255C8.51186 31.3732 8.89214 30.9436 8.89214 30.4136C8.89214 29.8837 8.51186 29.4541 8.04255 29.4541Z" fill="#020724"/>
<path d="M8.04243 42.8867H7.34568C6.87637 42.8867 6.49609 43.3163 6.49609 43.8463C6.49609 44.3762 6.87637 44.8058 7.34568 44.8058H8.04243C8.51174 44.8058 8.89202 44.3762 8.89202 43.8463C8.89202 43.3164 8.51174 42.8867 8.04243 42.8867Z" fill="#020724"/>
<path d="M4.51377 42.8867H0.849588C0.380281 42.8867 0 43.3163 0 43.8463C0 44.3762 0.380281 44.8058 0.849588 44.8058H4.51377C4.98308 44.8058 5.36336 44.3762 5.36336 43.8463C5.36336 43.3164 4.98298 42.8867 4.51377 42.8867Z" fill="#020724"/>
<path d="M44.3847 18.6477H37.1834V16.9205C37.1834 16.3905 36.8032 15.9609 36.3338 15.9609H25.5258C25.0565 15.9609 24.6762 16.3905 24.6762 16.9205C24.6762 17.4504 25.0565 17.88 25.5258 17.88H35.4843V38.0943C35.4843 38.6243 35.8645 39.0539 36.3338 39.0539C36.8032 39.0539 37.1834 38.6243 37.1834 38.0943V20.5668H44.3847C48.2668 20.5668 51.4249 24.1333 51.4249 28.517V44.7476H49.2648C48.8562 41.851 46.6297 39.63 43.9517 39.63C41.2739 39.63 39.0472 41.851 38.6387 44.7476H37.1833V41.2929C37.1833 40.7629 36.803 40.3333 36.3337 40.3333C35.8644 40.3333 35.4842 40.7629 35.4842 41.2929V44.7476H26.4673C26.0587 41.851 23.8321 39.63 21.1543 39.63C18.4764 39.63 16.2497 41.851 15.8411 44.7476H14.0742V30.7535C14.0742 30.2235 13.6939 29.7939 13.2246 29.7939C12.7553 29.7939 12.375 30.2235 12.375 30.7535V45.7071C12.375 46.237 12.7553 46.6666 13.2246 46.6666H15.8411C16.2497 49.5632 18.4764 51.7842 21.1543 51.7842C23.8321 51.7842 26.0588 49.5632 26.4673 46.6666H38.6386C39.0472 49.5632 41.2738 51.7842 43.9516 51.7842C46.6294 51.7842 48.8561 49.5632 49.2646 46.6666H52.2743C52.7436 46.6666 53.1239 46.237 53.1239 45.7071V28.517C53.1243 23.0751 49.2036 18.6477 44.3847 18.6477ZM21.1543 49.8652C19.1242 49.8652 17.4726 47.9999 17.4726 45.7071C17.4726 43.4143 19.1242 41.549 21.1543 41.549C23.1843 41.549 24.8359 43.4143 24.8359 45.7071C24.8359 48 23.1843 49.8652 21.1543 49.8652ZM43.9519 49.8652C41.9223 49.8652 40.2711 48.0008 40.2703 45.7087C40.2703 45.7083 40.2704 45.7076 40.2704 45.7071C40.2704 45.7066 40.2703 45.7059 40.2703 45.7055C40.2711 43.4134 41.9223 41.549 43.9519 41.549C45.982 41.549 47.6335 43.4143 47.6335 45.7071C47.6335 48 45.982 49.8652 43.9519 49.8652Z" fill="#020724"/>
<path d="M49.7279 28.5174C49.7279 25.1918 47.3319 22.4863 44.3868 22.4863H39.7344C39.265 22.4863 38.8848 22.9159 38.8848 23.4459V32.4657C38.8848 32.9956 39.265 33.4252 39.7344 33.4252H48.8785C49.3478 33.4252 49.7281 32.9956 49.7281 32.4657V28.5174H49.7279ZM40.5838 31.5063V24.4056H44.3866C46.3949 24.4056 48.0286 26.2503 48.0286 28.5176V31.5063H40.5838Z" fill="#020724"/>
<path d="M21.1552 43.2334C19.9475 43.2334 18.9648 44.3432 18.9648 45.7072C18.9648 47.0713 19.9475 48.1811 21.1552 48.1811C22.363 48.1811 23.3456 47.0713 23.3456 45.7072C23.3456 44.3432 22.363 43.2334 21.1552 43.2334ZM21.1552 46.2619C20.8844 46.2619 20.664 46.0131 20.664 45.7071C20.664 45.4013 20.8843 45.1524 21.1552 45.1524C21.426 45.1524 21.6464 45.4011 21.6464 45.7071C21.6464 46.0131 21.426 46.2619 21.1552 46.2619Z" fill="#020724"/>
<path d="M43.9521 43.2334C42.7443 43.2334 41.7617 44.3432 41.7617 45.7072C41.7617 47.0713 42.7443 48.1811 43.9521 48.1811C45.1599 48.1811 46.1425 47.0713 46.1425 45.7072C46.1425 44.3432 45.1599 43.2334 43.9521 43.2334ZM43.9521 46.2619C43.6813 46.2619 43.4609 46.0131 43.4609 45.7071C43.4609 45.4013 43.6812 45.1524 43.9521 45.1524C44.2229 45.1524 44.4433 45.4011 44.4433 45.7071C44.4432 46.0131 44.2229 46.2619 43.9521 46.2619Z" fill="#020724"/>
<path d="M48.8769 36.0479C48.4076 36.0479 48.0273 36.4775 48.0273 37.0074V39.4382C48.0273 39.9681 48.4076 40.3978 48.8769 40.3978C49.3462 40.3978 49.7265 39.9681 49.7265 39.4382V37.0074C49.7265 36.4775 49.3461 36.0479 48.8769 36.0479Z" fill="#020724"/>
<path d="M14.6076 8.21484C13.4616 8.21484 12.3444 8.45402 11.2869 8.92547C10.8504 9.12012 10.6365 9.67747 10.8088 10.1704C10.9812 10.6634 11.4748 10.9049 11.9111 10.7104C12.7687 10.3279 13.676 10.1339 14.6076 10.1339C18.6581 10.1339 21.9534 13.8557 21.9534 18.4304C21.9534 23.005 18.6581 26.7268 14.6076 26.7268C10.5571 26.7268 7.26178 23.005 7.26178 18.4304C7.26178 16.1033 8.13534 13.8688 9.65833 12.2994C10.0051 11.9422 10.0296 11.3354 9.71343 10.9439C9.39706 10.5524 8.85958 10.5246 8.51313 10.8817C6.63797 12.8139 5.5625 15.5652 5.5625 18.4304C5.5626 24.0633 9.62025 28.646 14.6076 28.646C19.595 28.646 23.6526 24.0632 23.6526 18.4305C23.6526 12.7976 19.595 8.21484 14.6076 8.21484Z" fill="#020724"/>
<path d="M16.7056 17.471H15.457V13.0884C15.457 12.5585 15.0767 12.1289 14.6074 12.1289C14.1381 12.1289 13.7578 12.5585 13.7578 13.0884V18.4306C13.7578 18.9605 14.1381 19.3901 14.6074 19.3901H16.7057C17.1751 19.3901 17.5553 18.9605 17.5553 18.4306C17.5553 17.9006 17.1749 17.471 16.7056 17.471Z" fill="#020724"/>
</g>
<defs>
<clipPath id="clip0_1489_1351">
<rect width="53.125" height="60" fill="white"/>
</clipPath>
</defs>
</svg>
