<svg width="60" height="60" viewBox="0 0 60 60" fill="none" xmlns="http://www.w3.org/2000/svg">
<path d="M49.5117 30.5508C49.957 31.377 50.8125 31.8926 51.75 31.8926C52.1426 31.8926 52.4648 32.2148 52.4648 32.6074V38.7773C52.4648 39.6562 51.7441 40.3711 50.8652 40.3711H49.0664C48.5449 38.9063 47.1445 37.8398 45.498 37.8398C43.8457 37.8398 42.4453 38.9063 41.9297 40.3711H21.9844C21.4629 38.9063 20.0625 37.8398 18.416 37.8398C16.7637 37.8398 15.3633 38.9063 14.8477 40.3711H10.5527V35.4375H38.4727V24.2461H45.4102C45.8672 24.2461 46.2832 24.498 46.4941 24.9023L49.5117 30.5508Z" fill="#020724"/>
<path d="M45.498 38.502C47.2148 38.502 48.6211 39.9023 48.6211 41.625C48.6211 43.3477 47.2148 44.748 45.498 44.748C43.7754 44.748 42.375 43.3477 42.375 41.625C42.375 39.9023 43.7754 38.502 45.498 38.502ZM18.416 38.502C20.1328 38.502 21.5391 39.9023 21.5391 41.625C21.5391 43.3477 20.1328 44.748 18.416 44.748C16.6934 44.748 15.293 43.3477 15.293 41.625C15.293 39.9023 16.6934 38.502 18.416 38.502Z" fill="#020724"/>
<path d="M45.498 44.748C47.2148 44.748 48.6211 43.3477 48.6211 41.625C48.6211 39.9023 47.2148 38.502 45.498 38.502C43.7754 38.502 42.375 39.9023 42.375 41.625C42.375 43.3477 43.7754 44.748 45.498 44.748ZM14.8477 40.3711C15.3633 38.9062 16.7637 37.8398 18.416 37.8398C20.0625 37.8398 21.4629 38.9062 21.9844 40.3711H41.9356C42.4512 38.9062 43.8516 37.8398 45.5039 37.8398C47.1504 37.8398 48.5508 38.9062 49.0723 40.3711H50.8711C51.75 40.3711 52.4707 39.6562 52.4707 38.7773V32.6074C52.4707 32.2148 52.1484 31.8926 51.7559 31.8926C50.8184 31.8926 49.957 31.377 49.5176 30.5508L46.5059 24.8965C46.2949 24.4922 45.8789 24.2402 45.4219 24.2402H38.4785V35.4316H10.5527V40.3711H14.8477ZM18.416 45.4102C16.3301 45.4102 14.6309 43.7109 14.6309 41.625C14.6309 41.4258 14.6484 41.2266 14.6777 41.0332H9.89648V34.7754H37.8164V23.584H45.4102C46.1133 23.584 46.752 23.9648 47.0801 24.5859L50.0918 30.2402C50.4141 30.8555 51.0469 31.2305 51.7441 31.2305C52.5 31.2305 53.1152 31.8516 53.1152 32.6016V38.7715C53.1152 40.0137 52.0957 41.0215 50.8535 41.0215H49.2246C49.2539 41.2207 49.2773 41.4199 49.2773 41.6133C49.2773 43.6992 47.5723 45.3984 45.4922 45.3984C43.4063 45.3984 41.707 43.6992 41.707 41.6133C41.707 41.4141 41.7246 41.2148 41.7539 41.0215H22.1484C22.1777 41.2207 22.2012 41.4199 22.2012 41.6133C22.2012 43.7109 20.4961 45.4102 18.416 45.4102ZM15.293 41.625C15.293 43.3477 16.6934 44.748 18.416 44.748C20.1328 44.748 21.5391 43.3477 21.5391 41.625C21.5391 39.9023 20.1328 38.502 18.416 38.502C16.6934 38.502 15.293 39.9023 15.293 41.625Z" fill="#020724"/>
<path d="M34.6055 23.4726V25.6289C34.6055 26.1035 34.2188 26.4902 33.7441 26.4902H33.457V33.832C33.457 34.3066 33.0703 34.6933 32.5957 34.6933H20.3965C19.9219 34.6933 19.5352 34.3066 19.5352 33.832V26.4902H19.248C18.7734 26.4902 18.3867 26.1035 18.3867 25.6289V23.4726C18.3867 22.998 18.7734 22.6113 19.248 22.6113H21.9844C21.416 22.289 21.0352 21.6797 21.0352 20.9824C21.0352 19.9453 21.8789 19.1074 22.9102 19.1074C23.543 19.1074 23.9941 19.3008 24.4453 19.7109C24.3457 19.3652 24.3398 18.9902 24.4395 18.6269C24.5801 18.123 24.9082 17.6953 25.3359 17.4492C25.7695 17.1972 26.2793 17.1328 26.7598 17.2617C27.2461 17.3906 27.6504 17.7011 27.9023 18.1347C28.2773 18.7851 28.3359 19.4531 28.0664 20.2265C28.6992 19.4531 29.2266 19.1015 30.082 19.1015C31.1191 19.1015 31.957 19.9453 31.957 20.9765C31.957 21.6738 31.5703 22.2832 31.0078 22.6054H33.7441C34.2188 22.6054 34.6055 22.9922 34.6055 23.4726ZM34.3594 25.6289V23.4726C34.3594 23.1328 34.084 22.8574 33.7441 22.8574H27.6855V26.25H33.7441C34.084 26.2441 34.3594 25.9687 34.3594 25.6289ZM33.2051 33.832V26.4902H27.6797V34.4531H32.5898C32.9297 34.4531 33.2051 34.1719 33.2051 33.832ZM31.7109 20.9765C31.7109 20.0742 30.9785 19.3476 30.082 19.3476C29.1445 19.3476 28.6289 19.8398 27.832 20.9414L26.7305 22.6113H30.0879C30.9785 22.6054 31.7109 21.873 31.7109 20.9765ZM27.4395 20.9765C28.0723 19.875 28.1484 19.0547 27.6797 18.2519C27.4629 17.8769 27.1113 17.6074 26.6895 17.4902C26.5488 17.4551 26.4082 17.4316 26.2676 17.4316C25.9863 17.4316 25.7051 17.5078 25.4531 17.6484C25.0781 17.8652 24.7969 18.2402 24.6738 18.6797C24.5508 19.1191 24.6035 19.5879 24.8145 19.957L26.4668 22.4062L27.4395 20.9765ZM27.4336 34.4531V22.8515H25.4824V34.4531H27.4336ZM26.2617 22.6054L25.1543 20.9297C24.3574 19.834 23.8418 19.3418 22.9043 19.3418C22.0078 19.3418 21.2754 20.0742 21.2754 20.9707C21.2754 21.8672 22.0078 22.5996 22.9043 22.5996H26.2617V22.6054ZM25.2305 34.4531V26.4902H19.7754V33.832C19.7754 34.1719 20.0508 34.4472 20.3906 34.4472H25.2305V34.4531ZM25.2305 26.2441V22.8515H19.2422C18.9023 22.8515 18.627 23.1269 18.627 23.4668V25.623C18.627 25.9629 18.9023 26.2383 19.2422 26.2383H25.2305V26.2441Z" fill="#020724"/>
<path d="M34.3594 23.4727V25.6289C34.3594 25.9687 34.084 26.2441 33.7441 26.2441H27.6797V22.8516H33.7383C34.084 22.8516 34.3594 23.1328 34.3594 23.4727Z" fill="#58A4B0"/>
<path d="M33.2051 26.4902V33.832C33.2051 34.1719 32.9297 34.4473 32.5898 34.4473H27.6797V26.4902H33.2051Z" fill="#A9BCD0"/>
<path d="M30.0762 19.3418C30.9785 19.3418 31.7051 20.0742 31.7051 20.9707C31.7051 21.8672 30.9727 22.5996 30.0762 22.5996H26.7187L27.8203 20.9297C28.623 19.834 29.1387 19.3418 30.0762 19.3418ZM27.6855 18.252C28.1543 19.0605 28.0781 19.8809 27.4453 20.9766L26.4727 22.4121L24.8203 19.9629C24.6094 19.5938 24.5566 19.125 24.6797 18.6855C24.8027 18.2461 25.084 17.8711 25.459 17.6543C25.7109 17.5078 25.9863 17.4375 26.2734 17.4375C26.4141 17.4375 26.5547 17.4551 26.6953 17.4961C27.1113 17.6016 27.4629 17.877 27.6855 18.252ZM27.4336 27.7676V34.4531H25.4824V22.8516H26.4668V22.8574L26.4727 22.8516H27.4336V26.4902V27.7676ZM25.1543 20.9297L26.2617 22.6055H22.9043C22.0078 22.6055 21.2754 21.873 21.2754 20.9766C21.2754 20.0742 22.0078 19.3477 22.9043 19.3477C23.8418 19.3418 24.3574 19.834 25.1543 20.9297Z" fill="#020724"/>
<path d="M25.2305 26.4902V34.4531H20.3906C20.0508 34.4531 19.7754 34.1777 19.7754 33.8379V26.4902H25.2305Z" fill="#A9BCD0"/>
<path d="M25.2305 22.8516V26.2441H19.2422C18.9023 26.2441 18.627 25.9687 18.627 25.6289V23.4727C18.627 23.1328 18.9023 22.8574 19.2422 22.8574H25.2305V22.8516Z" fill="#58A4B0"/>
</svg>
